<svg width="24" height="24" viewBox="0 0 24 24" fill="none" xmlns="http://www.w3.org/2000/svg">
<g id="bar-chart-02">
<path id="icon" d="M22 22H5.16667C3.41777 22 2 20.5822 2 18.8333V3M7.5 18C7.22386 18 7 17.7761 7 17.5V5.5C7 5.22386 7.22386 5 7.5 5C7.77614 5 8 5.22386 8 5.5V17.5C8 17.7761 7.77614 18 7.5 18ZM13.5 18C13.2239 18 13 17.7761 13 17.5V8.5C13 8.22386 13.2239 8 13.5 8C13.7761 8 14 8.22386 14 8.5V17.5C14 17.7761 13.7761 18 13.5 18ZM19.5 18C19.2239 18 19 17.7761 19 17.5V12.5C19 12.2239 19.2239 12 19.5 12C19.7761 12 20 12.2239 20 12.5V17.5C20 17.7761 19.7761 18 19.5 18Z" stroke="black" stroke-width="2" stroke-linecap="round"/>
</g>
</svg>
