<svg width="24" height="24" viewBox="0 0 24 24" fill="none" xmlns="http://www.w3.org/2000/svg">
<g id="bar-chart-01">
<path id="icon" d="M21 21H3M4 17H6C6.55228 17 7 16.5523 7 16V8C7 7.44772 6.55228 7 6 7H4C3.44772 7 3 7.44772 3 8V16C3 16.5523 3.44772 17 4 17ZM11 17H13C13.5523 17 14 16.5523 14 16V4C14 3.44772 13.5523 3 13 3H11C10.4477 3 10 3.44772 10 4V16C10 16.5523 10.4477 17 11 17ZM18 17H20C20.5523 17 21 16.5523 21 16V11C21 10.4477 20.5523 10 20 10H18C17.4477 10 17 10.4477 17 11V16C17 16.5523 17.4477 17 18 17Z" stroke="black" stroke-width="2" stroke-linecap="round"/>
</g>
</svg>
