<svg width="24" height="24" viewBox="0 0 24 24" fill="none" xmlns="http://www.w3.org/2000/svg">
<g id="briefcase-03">
<path id="icon" d="M2 11C5.22942 11 7.1552 11.9777 9.88234 13.6701C11.182 14.4766 12.818 14.4766 14.1177 13.6701C16.8448 11.9777 18.7706 11 22 11M5 21C3.34315 21 2 19.6568 2 18V10C2 8.34314 3.34315 7 5 7L19 7C20.6569 7 22 8.34315 22 10V18C22 19.6568 20.6569 21 19 21H5ZM16 7V5C16 3.89543 15.1046 3 14 3H10C8.89543 3 8 3.89543 8 5V7H16Z" stroke="black" stroke-width="2"/>
</g>
</svg>
