<svg width="24" height="24" viewBox="0 0 24 24" fill="none" xmlns="http://www.w3.org/2000/svg">
<g id="calendar">
<path id="icon" d="M3 8C2.44772 8 2 8.44772 2 9C2 9.55229 2.44772 10 3 10L3 8ZM21 10C21.5523 10 22 9.55229 22 9C22 8.44772 21.5523 8 21 8V10ZM8 5C8 5.55228 8.44772 6 9 6C9.55228 6 10 5.55228 10 5H8ZM10 2C10 1.44772 9.55228 1 9 1C8.44772 1 8 1.44772 8 2H10ZM17 14C17.5523 14 18 13.5523 18 13C18 12.4477 17.5523 12 17 12V14ZM12 12C11.4477 12 11 12.4477 11 13C11 13.5523 11.4477 14 12 14V12ZM14 5C14 5.55228 14.4477 6 15 6C15.5523 6 16 5.55228 16 5H14ZM16 2C16 1.44772 15.5523 1 15 1C14.4477 1 14 1.44772 14 2H16ZM6 5H18V3H6V5ZM20 7V18H22V7H20ZM18 20H6V22H18V20ZM4 18V7H2V18H4ZM6 20C4.89543 20 4 19.1046 4 18H2C2 20.2091 3.79086 22 6 22V20ZM20 18C20 19.1046 19.1046 20 18 20V22C20.2091 22 22 20.2091 22 18H20ZM18 5C19.1046 5 20 5.89543 20 7H22C22 4.79086 20.2091 3 18 3V5ZM6 3C3.79086 3 2 4.79086 2 7H4C4 5.89543 4.89543 5 6 5V3ZM3 10L21 10V8L3 8L3 10ZM10 5V2H8V5H10ZM17 12H12V14H17V12ZM16 5V2H14V5H16Z" fill="black"/>
</g>
</svg>
