<svg width="24" height="24" viewBox="0 0 24 24" fill="none" xmlns="http://www.w3.org/2000/svg">
<g id="camera">
<path id="icon" d="M13 10C13.5523 10 14 9.55228 14 9C14 8.44772 13.5523 8 13 8V10ZM9 8C8.44772 8 8 8.44772 8 9C8 9.55228 8.44772 10 9 10V8ZM20.9049 8.10477L20.3932 7.24563V7.24563L20.9049 8.10477ZM20.9049 15.8952L21.4166 15.0361L20.9049 15.8952ZM5 6H14V4H5V6ZM16 8V16H18V8H16ZM14 18H5V20H14V18ZM3 16V8H1V16H3ZM5 18C3.89543 18 3 17.1046 3 16H1C1 18.2091 2.79086 20 5 20V18ZM16 16C16 17.1046 15.1046 18 14 18V20C16.2091 20 18 18.2091 18 16H16ZM14 6C15.1046 6 16 6.89543 16 8H18C18 5.79086 16.2091 4 14 4V6ZM5 4C2.79086 4 1 5.79086 1 8H3C3 6.89543 3.89543 6 5 6V4ZM13 8H9V10H13V8ZM23 15.3168V8.68322H21V15.3168H23ZM23 8.68322C23 7.28911 21.4643 6.6076 20.3932 7.24563L21.4166 8.96392C21.332 9.01433 21.2334 9.0074 21.1642 8.97083C21.0928 8.93315 21 8.83161 21 8.68322H23ZM20.3932 16.7544C21.4643 17.3924 23 16.7109 23 15.3168H21C21 15.1684 21.0928 15.0669 21.1642 15.0292C21.2334 14.9926 21.332 14.9857 21.4166 15.0361L20.3932 16.7544ZM20.3932 7.24563L16.3719 9.64086L17.3953 11.3591L21.4166 8.96392L20.3932 7.24563ZM16.3719 14.3591L20.3932 16.7544L21.4166 15.0361L17.3953 12.6409L16.3719 14.3591Z" fill="black"/>
</g>
</svg>
