<svg width="24" height="24" viewBox="0 0 24 24" fill="none" xmlns="http://www.w3.org/2000/svg">
<g id="cart-02">
<path id="icon" d="M21.6555 7.26312L22.6203 7.52624V7.52624L21.6555 7.26312ZM19.201 16.2631L18.2362 16L19.201 16.2631ZM7 17L6.01613 17.1789L6.02196 17.2109L6.02986 17.2425L7 17ZM2 2C1.44772 2 1 2.44772 1 3C1 3.55228 1.44772 4 2 4V2ZM8 21L7.02986 21.2425C7.14115 21.6877 7.54113 22 8 22V21ZM4 3L4.94868 2.68377C4.81257 2.27543 4.43043 2 4 2V3ZM17 22C17.5523 22 18 21.5523 18 21C18 20.4477 17.5523 20 17 20V22ZM5 7H20.6908V5H5V7ZM20.6908 7L18.2362 16L20.1657 16.5262L22.6203 7.52624L20.6908 7ZM18.2362 16H7V18H18.2362V16ZM18.2362 16V18C19.1381 18 19.9284 17.3964 20.1657 16.5262L18.2362 16ZM20.6908 7V7L22.6203 7.52624C22.9673 6.25396 22.0095 5 20.6908 5V7ZM4.01613 6.17889L6.01613 17.1789L7.98387 16.8211L5.98387 5.82111L4.01613 6.17889ZM6.02986 17.2425L7.02986 21.2425L8.97014 20.7575L7.97014 16.7575L6.02986 17.2425ZM8 22H17V20H8V22ZM2 4C2.00103 4 2.00207 4 2.00312 4C2.00416 4 2.0052 4 2.00625 4C2.0073 4 2.00835 4 2.00941 4C2.01047 4 2.01153 4 2.01259 4C2.01365 4 2.01472 4 2.01579 4C2.01686 4 2.01793 4 2.01901 4C2.02009 4 2.02117 4 2.02225 4C2.02334 4 2.02443 4 2.02552 4C2.02661 4 2.0277 4 2.0288 4C2.0299 4 2.031 4 2.03211 4C2.03321 4 2.03432 4 2.03543 4C2.03654 4 2.03766 4 2.03878 4C2.03989 4 2.04102 4 2.04214 4C2.04327 4 2.0444 4 2.04553 4C2.04666 4 2.04779 4 2.04893 4C2.05007 4 2.05121 4 2.05236 4C2.0535 4 2.05465 4 2.0558 4C2.05695 4 2.05811 4 2.05927 4C2.06043 4 2.06159 4 2.06275 4C2.06392 4 2.06509 4 2.06626 4C2.06743 4 2.0686 4 2.06978 4C2.07096 4 2.07214 4 2.07332 4C2.07451 4 2.07569 4 2.07688 4C2.07807 4 2.07927 4 2.08046 4C2.08166 4 2.08286 4 2.08406 4C2.08527 4 2.08647 4 2.08768 4C2.08889 4 2.0901 4 2.09132 4C2.09254 4 2.09375 4 2.09498 4C2.0962 4 2.09742 4 2.09865 4C2.09988 4 2.10111 4 2.10234 4C2.10358 4 2.10481 4 2.10605 4C2.10729 4 2.10854 4 2.10978 4C2.11103 4 2.11228 4 2.11353 4C2.11478 4 2.11604 4 2.1173 4C2.11855 4 2.11982 4 2.12108 4C2.12234 4 2.12361 4 2.12488 4C2.12615 4 2.12742 4 2.1287 4C2.12997 4 2.13125 4 2.13253 4C2.13382 4 2.1351 4 2.13639 4C2.13768 4 2.13897 4 2.14026 4C2.14155 4 2.14285 4 2.14415 4C2.14545 4 2.14675 4 2.14805 4C2.14936 4 2.15066 4 2.15197 4C2.15328 4 2.1546 4 2.15591 4C2.15723 4 2.15855 4 2.15987 4C2.16119 4 2.16251 4 2.16384 4C2.16517 4 2.1665 4 2.16783 4C2.16916 4 2.1705 4 2.17184 4C2.17317 4 2.17451 4 2.17586 4C2.1772 4 2.17855 4 2.1799 4C2.18124 4 2.1826 4 2.18395 4C2.1853 4 2.18666 4 2.18802 4C2.18938 4 2.19074 4 2.19211 4C2.19347 4 2.19484 4 2.19621 4C2.19758 4 2.19895 4 2.20033 4C2.2017 4 2.20308 4 2.20446 4C2.20584 4 2.20722 4 2.20861 4C2.20999 4 2.21138 4 2.21277 4C2.21416 4 2.21556 4 2.21695 4C2.21835 4 2.21974 4 2.22115 4C2.22255 4 2.22395 4 2.22536 4C2.22676 4 2.22817 4 2.22958 4C2.23099 4 2.2324 4 2.23382 4C2.23523 4 2.23665 4 2.23807 4C2.23949 4 2.24092 4 2.24234 4C2.24377 4 2.24519 4 2.24662 4C2.24806 4 2.24949 4 2.25092 4C2.25236 4 2.25379 4 2.25523 4C2.25667 4 2.25812 4 2.25956 4C2.26101 4 2.26245 4 2.2639 4C2.26535 4 2.2668 4 2.26826 4C2.26971 4 2.27116 4 2.27262 4C2.27408 4 2.27554 4 2.277 4C2.27847 4 2.27993 4 2.2814 4C2.28287 4 2.28434 4 2.28581 4C2.28728 4 2.28876 4 2.29023 4C2.29171 4 2.29319 4 2.29467 4C2.29615 4 2.29763 4 2.29912 4C2.3006 4 2.30209 4 2.30358 4C2.30507 4 2.30656 4 2.30805 4C2.30955 4 2.31104 4 2.31254 4C2.31404 4 2.31554 4 2.31704 4C2.31855 4 2.32005 4 2.32156 4C2.32306 4 2.32457 4 2.32608 4C2.32759 4 2.32911 4 2.33062 4C2.33214 4 2.33365 4 2.33517 4C2.33669 4 2.33821 4 2.33974 4C2.34126 4 2.34278 4 2.34431 4C2.34584 4 2.34737 4 2.3489 4C2.35043 4 2.35196 4 2.3535 4C2.35503 4 2.35657 4 2.35811 4C2.35965 4 2.36119 4 2.36273 4C2.36427 4 2.36582 4 2.36737 4C2.36891 4 2.37046 4 2.37201 4C2.37356 4 2.37511 4 2.37667 4C2.37822 4 2.37978 4 2.38134 4C2.3829 4 2.38446 4 2.38602 4C2.38758 4 2.38914 4 2.39071 4C2.39227 4 2.39384 4 2.39541 4C2.39698 4 2.39855 4 2.40012 4C2.4017 4 2.40327 4 2.40485 4C2.40642 4 2.408 4 2.40958 4C2.41116 4 2.41274 4 2.41432 4C2.41591 4 2.41749 4 2.41908 4C2.42067 4 2.42225 4 2.42384 4C2.42544 4 2.42703 4 2.42862 4C2.43021 4 2.43181 4 2.43341 4C2.435 4 2.4366 4 2.4382 4C2.4398 4 2.4414 4 2.44301 4C2.44461 4 2.44622 4 2.44782 4C2.44943 4 2.45104 4 2.45265 4C2.45426 4 2.45587 4 2.45748 4C2.4591 4 2.46071 4 2.46233 4C2.46394 4 2.46556 4 2.46718 4C2.4688 4 2.47042 4 2.47204 4C2.47366 4 2.47529 4 2.47691 4C2.47854 4 2.48017 4 2.48179 4C2.48342 4 2.48505 4 2.48668 4C2.48831 4 2.48995 4 2.49158 4C2.49322 4 2.49485 4 2.49649 4C2.49813 4 2.49976 4 2.5014 4C2.50304 4 2.50469 4 2.50633 4C2.50797 4 2.50962 4 2.51126 4C2.51291 4 2.51455 4 2.5162 4C2.51785 4 2.5195 4 2.52115 4C2.5228 4 2.52445 4 2.52611 4C2.52776 4 2.52942 4 2.53107 4C2.53273 4 2.53439 4 2.53605 4C2.53771 4 2.53937 4 2.54103 4C2.54269 4 2.54435 4 2.54601 4C2.54768 4 2.54934 4 2.55101 4C2.55268 4 2.55434 4 2.55601 4C2.55768 4 2.55935 4 2.56102 4C2.5627 4 2.56437 4 2.56604 4C2.56772 4 2.56939 4 2.57107 4C2.57274 4 2.57442 4 2.5761 4C2.57778 4 2.57946 4 2.58114 4C2.58282 4 2.5845 4 2.58618 4C2.58786 4 2.58955 4 2.59123 4C2.59292 4 2.5946 4 2.59629 4C2.59798 4 2.59967 4 2.60136 4C2.60305 4 2.60474 4 2.60643 4C2.60812 4 2.60981 4 2.61151 4C2.6132 4 2.61489 4 2.61659 4C2.61828 4 2.61998 4 2.62168 4C2.62338 4 2.62507 4 2.62677 4C2.62847 4 2.63017 4 2.63187 4C2.63358 4 2.63528 4 2.63698 4C2.63868 4 2.64039 4 2.64209 4C2.6438 4 2.64551 4 2.64721 4C2.64892 4 2.65063 4 2.65234 4C2.65404 4 2.65575 4 2.65746 4C2.65917 4 2.66089 4 2.6626 4C2.66431 4 2.66602 4 2.66774 4C2.66945 4 2.67116 4 2.67288 4C2.6746 4 2.67631 4 2.67803 4C2.67975 4 2.68146 4 2.68318 4C2.6849 4 2.68662 4 2.68834 4C2.69006 4 2.69178 4 2.6935 4C2.69522 4 2.69695 4 2.69867 4C2.70039 4 2.70211 4 2.70384 4C2.70556 4 2.70729 4 2.70901 4C2.71074 4 2.71247 4 2.71419 4C2.71592 4 2.71765 4 2.71938 4C2.7211 4 2.72283 4 2.72456 4C2.72629 4 2.72802 4 2.72975 4C2.73149 4 2.73322 4 2.73495 4C2.73668 4 2.73841 4 2.74015 4C2.74188 4 2.74361 4 2.74535 4C2.74708 4 2.74882 4 2.75055 4C2.75229 4 2.75402 4 2.75576 4C2.7575 4 2.75923 4 2.76097 4C2.76271 4 2.76445 4 2.76618 4C2.76792 4 2.76966 4 2.7714 4C2.77314 4 2.77488 4 2.77662 4C2.77836 4 2.7801 4 2.78184 4C2.78358 4 2.78533 4 2.78707 4C2.78881 4 2.79055 4 2.7923 4C2.79404 4 2.79578 4 2.79752 4C2.79927 4 2.80101 4 2.80276 4C2.8045 4 2.80625 4 2.80799 4C2.80974 4 2.81148 4 2.81323 4C2.81497 4 2.81672 4 2.81846 4C2.82021 4 2.82196 4 2.8237 4C2.82545 4 2.8272 4 2.82895 4C2.83069 4 2.83244 4 2.83419 4C2.83594 4 2.83768 4 2.83943 4C2.84118 4 2.84293 4 2.84468 4C2.84643 4 2.84818 4 2.84993 4C2.85167 4 2.85342 4 2.85517 4C2.85692 4 2.85867 4 2.86042 4C2.86217 4 2.86392 4 2.86567 4C2.86742 4 2.86917 4 2.87092 4C2.87267 4 2.87443 4 2.87618 4C2.87793 4 2.87968 4 2.88143 4C2.88318 4 2.88493 4 2.88668 4C2.88843 4 2.89018 4 2.89193 4C2.89369 4 2.89544 4 2.89719 4C2.89894 4 2.90069 4 2.90244 4C2.90419 4 2.90594 4 2.9077 4C2.90945 4 2.9112 4 2.91295 4C2.9147 4 2.91645 4 2.9182 4C2.91995 4 2.92171 4 2.92346 4C2.92521 4 2.92696 4 2.92871 4C2.93046 4 2.93221 4 2.93396 4C2.93571 4 2.93746 4 2.93921 4C2.94096 4 2.94271 4 2.94447 4C2.94622 4 2.94797 4 2.94972 4C2.95147 4 2.95322 4 2.95497 4C2.95671 4 2.95846 4 2.96021 4C2.96196 4 2.96371 4 2.96546 4C2.96721 4 2.96896 4 2.97071 4C2.97246 4 2.9742 4 2.97595 4C2.9777 4 2.97945 4 2.9812 4C2.98294 4 2.98469 4 2.98644 4C2.98819 4 2.98993 4 2.99168 4C2.99343 4 2.99517 4 2.99692 4C2.99866 4 3.00041 4 3.00215 4C3.0039 4 3.00564 4 3.00739 4C3.00913 4 3.01088 4 3.01262 4C3.01437 4 3.01611 4 3.01785 4C3.0196 4 3.02134 4 3.02308 4C3.02482 4 3.02656 4 3.02831 4C3.03005 4 3.03179 4 3.03353 4C3.03527 4 3.03701 4 3.03875 4C3.04049 4 3.04223 4 3.04397 4C3.04571 4 3.04745 4 3.04918 4C3.05092 4 3.05266 4 3.0544 4C3.05613 4 3.05787 4 3.05961 4C3.06134 4 3.06308 4 3.06481 4C3.06655 4 3.06828 4 3.07001 4C3.07175 4 3.07348 4 3.07521 4C3.07695 4 3.07868 4 3.08041 4C3.08214 4 3.08387 4 3.0856 4C3.08733 4 3.08906 4 3.09079 4C3.09252 4 3.09425 4 3.09598 4C3.0977 4 3.09943 4 3.10116 4C3.10288 4 3.10461 4 3.10633 4C3.10806 4 3.10978 4 3.11151 4C3.11323 4 3.11495 4 3.11667 4C3.1184 4 3.12012 4 3.12184 4C3.12356 4 3.12528 4 3.127 4C3.12872 4 3.13044 4 3.13215 4C3.13387 4 3.13559 4 3.1373 4C3.13902 4 3.14074 4 3.14245 4C3.14416 4 3.14588 4 3.14759 4C3.1493 4 3.15102 4 3.15273 4C3.15444 4 3.15615 4 3.15786 4C3.15957 4 3.16128 4 3.16298 4C3.16469 4 3.1664 4 3.1681 4C3.16981 4 3.17151 4 3.17322 4C3.17492 4 3.17663 4 3.17833 4C3.18003 4 3.18173 4 3.18343 4C3.18513 4 3.18683 4 3.18853 4C3.19023 4 3.19193 4 3.19362 4C3.19532 4 3.19701 4 3.19871 4C3.2004 4 3.2021 4 3.20379 4C3.20548 4 3.20717 4 3.20886 4C3.21055 4 3.21224 4 3.21393 4C3.21562 4 3.2173 4 3.21899 4C3.22068 4 3.22236 4 3.22405 4C3.22573 4 3.22741 4 3.22909 4C3.23078 4 3.23246 4 3.23414 4C3.23581 4 3.23749 4 3.23917 4C3.24085 4 3.24252 4 3.2442 4C3.24587 4 3.24755 4 3.24922 4C3.25089 4 3.25256 4 3.25423 4C3.2559 4 3.25757 4 3.25924 4C3.26091 4 3.26257 4 3.26424 4C3.2659 4 3.26757 4 3.26923 4C3.27089 4 3.27255 4 3.27421 4C3.27587 4 3.27753 4 3.27919 4C3.28085 4 3.2825 4 3.28416 4C3.28581 4 3.28747 4 3.28912 4C3.29077 4 3.29242 4 3.29407 4C3.29572 4 3.29737 4 3.29901 4C3.30066 4 3.30231 4 3.30395 4C3.30559 4 3.30724 4 3.30888 4C3.31052 4 3.31216 4 3.3138 4C3.31544 4 3.31707 4 3.31871 4C3.32034 4 3.32198 4 3.32361 4C3.32524 4 3.32688 4 3.3285 4C3.33013 4 3.33176 4 3.33339 4C3.33502 4 3.33664 4 3.33827 4C3.33989 4 3.34151 4 3.34313 4C3.34475 4 3.34637 4 3.34799 4C3.34961 4 3.35122 4 3.35284 4C3.35445 4 3.35606 4 3.35768 4C3.35929 4 3.3609 4 3.36251 4C3.36411 4 3.36572 4 3.36732 4C3.36893 4 3.37053 4 3.37213 4C3.37374 4 3.37534 4 3.37693 4C3.37853 4 3.38013 4 3.38172 4C3.38332 4 3.38491 4 3.3865 4C3.3881 4 3.38969 4 3.39127 4C3.39286 4 3.39445 4 3.39603 4C3.39762 4 3.3992 4 3.40078 4C3.40236 4 3.40394 4 3.40552 4C3.4071 4 3.40868 4 3.41025 4C3.41182 4 3.4134 4 3.41497 4C3.41654 4 3.41811 4 3.41967 4C3.42124 4 3.42281 4 3.42437 4C3.42593 4 3.42749 4 3.42905 4C3.43061 4 3.43217 4 3.43373 4C3.43528 4 3.43684 4 3.43839 4C3.43994 4 3.44149 4 3.44304 4C3.44459 4 3.44614 4 3.44768 4C3.44923 4 3.45077 4 3.45231 4C3.45385 4 3.45539 4 3.45693 4C3.45846 4 3.46 4 3.46153 4C3.46306 4 3.46459 4 3.46612 4C3.46765 4 3.46918 4 3.4707 4C3.47223 4 3.47375 4 3.47527 4C3.47679 4 3.47831 4 3.47983 4C3.48134 4 3.48286 4 3.48437 4C3.48588 4 3.4874 4 3.4889 4C3.49041 4 3.49192 4 3.49342 4C3.49493 4 3.49643 4 3.49793 4C3.49943 4 3.50093 4 3.50242 4C3.50392 4 3.50541 4 3.5069 4C3.5084 4 3.50988 4 3.51137 4C3.51286 4 3.51434 4 3.51583 4C3.51731 4 3.51879 4 3.52027 4C3.52175 4 3.52322 4 3.5247 4C3.52617 4 3.52764 4 3.52911 4C3.53058 4 3.53205 4 3.53351 4C3.53498 4 3.53644 4 3.5379 4C3.53936 4 3.54082 4 3.54228 4C3.54373 4 3.54518 4 3.54664 4C3.54809 4 3.54954 4 3.55098 4C3.55243 4 3.55387 4 3.55531 4C3.55676 4 3.5582 4 3.55963 4C3.56107 4 3.5625 4 3.56394 4C3.56537 4 3.5668 4 3.56823 4C3.56965 4 3.57108 4 3.5725 4C3.57392 4 3.57534 4 3.57676 4C3.57818 4 3.57959 4 3.58101 4C3.58242 4 3.58383 4 3.58524 4C3.58665 4 3.58805 4 3.58945 4C3.59086 4 3.59226 4 3.59366 4C3.59505 4 3.59645 4 3.59784 4C3.59924 4 3.60063 4 3.60201 4C3.6034 4 3.60479 4 3.60617 4C3.60755 4 3.60893 4 3.61031 4C3.61169 4 3.61306 4 3.61443 4C3.61581 4 3.61717 4 3.61854 4C3.61991 4 3.62127 4 3.62264 4C3.624 4 3.62536 4 3.62671 4C3.62807 4 3.62942 4 3.63077 4C3.63212 4 3.63347 4 3.63482 4C3.63616 4 3.63751 4 3.63885 4C3.64019 4 3.64153 4 3.64286 4C3.6442 4 3.64553 4 3.64686 4C3.64819 4 3.64951 4 3.65084 4C3.65216 4 3.65348 4 3.6548 4C3.65612 4 3.65743 4 3.65875 4C3.66006 4 3.66137 4 3.66268 4C3.66398 4 3.66529 4 3.66659 4C3.66789 4 3.66919 4 3.67048 4C3.67178 4 3.67307 4 3.67436 4C3.67565 4 3.67694 4 3.67822 4C3.67951 4 3.68079 4 3.68207 4C3.68335 4 3.68462 4 3.68589 4C3.68717 4 3.68844 4 3.6897 4C3.69097 4 3.69223 4 3.69349 4C3.69475 4 3.69601 4 3.69727 4C3.69852 4 3.69977 4 3.70102 4C3.70227 4 3.70352 4 3.70476 4C3.706 4 3.70724 4 3.70848 4C3.70971 4 3.71095 4 3.71218 4C3.71341 4 3.71464 4 3.71586 4C3.71709 4 3.71831 4 3.71953 4C3.72074 4 3.72196 4 3.72317 4C3.72438 4 3.72559 4 3.7268 4C3.728 4 3.72921 4 3.73041 4C3.73161 4 3.7328 4 3.73399 4C3.73519 4 3.73638 4 3.73757 4C3.73875 4 3.73994 4 3.74112 4C3.7423 4 3.74347 4 3.74465 4C3.74582 4 3.74699 4 3.74816 4C3.74933 4 3.75049 4 3.75165 4C3.75281 4 3.75397 4 3.75513 4C3.75628 4 3.75743 4 3.75858 4C3.75973 4 3.76087 4 3.76202 4C3.76316 4 3.76429 4 3.76543 4C3.76656 4 3.7677 4 3.76882 4C3.76995 4 3.77108 4 3.7722 4C3.77332 4 3.77444 4 3.77555 4C3.77667 4 3.77778 4 3.77889 4C3.77999 4 3.7811 4 3.7822 4C3.7833 4 3.7844 4 3.78549 4C3.78659 4 3.78768 4 3.78876 4C3.78985 4 3.79094 4 3.79202 4C3.7931 4 3.79417 4 3.79525 4C3.79632 4 3.79739 4 3.79846 4C3.79952 4 3.80059 4 3.80165 4C3.80271 4 3.80376 4 3.80481 4C3.80587 4 3.80691 4 3.80796 4C3.80901 4 3.81005 4 3.81109 4C3.81212 4 3.81316 4 3.81419 4C3.81522 4 3.81625 4 3.81727 4C3.81829 4 3.81931 4 3.82033 4C3.82135 4 3.82236 4 3.82337 4C3.82438 4 3.82538 4 3.82639 4C3.82739 4 3.82839 4 3.82938 4C3.83038 4 3.83137 4 3.83235 4C3.83334 4 3.83432 4 3.8353 4C3.83628 4 3.83726 4 3.83823 4C3.8392 4 3.84017 4 3.84114 4C3.8421 4 3.84306 4 3.84402 4C3.84498 4 3.84593 4 3.84688 4C3.84783 4 3.84878 4 3.84972 4C3.85066 4 3.8516 4 3.85253 4C3.85347 4 3.8544 4 3.85532 4C3.85625 4 3.85717 4 3.85809 4C3.85901 4 3.85993 4 3.86084 4C3.86175 4 3.86266 4 3.86356 4C3.86446 4 3.86536 4 3.86626 4C3.86715 4 3.86805 4 3.86893 4C3.86982 4 3.8707 4 3.87158 4C3.87246 4 3.87334 4 3.87421 4C3.87508 4 3.87595 4 3.87682 4C3.87768 4 3.87854 4 3.8794 4C3.88025 4 3.8811 4 3.88195 4C3.8828 4 3.88364 4 3.88448 4C3.88532 4 3.88616 4 3.88699 4C3.88782 4 3.88865 4 3.88947 4C3.8903 4 3.89112 4 3.89193 4C3.89275 4 3.89356 4 3.89437 4C3.89517 4 3.89598 4 3.89678 4C3.89758 4 3.89837 4 3.89916 4C3.89995 4 3.90074 4 3.90152 4C3.9023 4 3.90308 4 3.90385 4C3.90463 4 3.9054 4 3.90616 4C3.90693 4 3.90769 4 3.90845 4C3.90921 4 3.90996 4 3.91071 4C3.91146 4 3.9122 4 3.91294 4C3.91368 4 3.91442 4 3.91515 4C3.91588 4 3.91661 4 3.91733 4C3.91805 4 3.91877 4 3.91949 4C3.9202 4 3.92091 4 3.92162 4C3.92232 4 3.92302 4 3.92372 4C3.92442 4 3.92511 4 3.9258 4C3.92649 4 3.92717 4 3.92785 4C3.92853 4 3.92921 4 3.92988 4C3.93055 4 3.93122 4 3.93188 4C3.93254 4 3.9332 4 3.93385 4C3.9345 4 3.93515 4 3.9358 4C3.93644 4 3.93708 4 3.93772 4C3.93835 4 3.93898 4 3.93961 4C3.94023 4 3.94086 4 3.94147 4C3.94209 4 3.9427 4 3.94331 4C3.94392 4 3.94452 4 3.94512 4C3.94572 4 3.94632 4 3.94691 4C3.9475 4 3.94808 4 3.94866 4C3.94925 4 3.94982 4 3.95039 4C3.95097 4 3.95153 4 3.95209 4C3.95266 4 3.95322 4 3.95377 4C3.95432 4 3.95487 4 3.95541 4C3.95596 4 3.9565 4 3.95703 4C3.95757 4 3.9581 4 3.95862 4C3.95915 4 3.95967 4 3.96018 4C3.9607 4 3.96121 4 3.96172 4C3.96222 4 3.96273 4 3.96322 4C3.96372 4 3.96421 4 3.9647 4C3.96519 4 3.96567 4 3.96615 4C3.96663 4 3.9671 4 3.96757 4C3.96804 4 3.9685 4 3.96896 4C3.96942 4 3.96987 4 3.97032 4C3.97077 4 3.97121 4 3.97165 4C3.97209 4 3.97253 4 3.97296 4C3.97339 4 3.97381 4 3.97423 4C3.97465 4 3.97507 4 3.97548 4C3.97589 4 3.97629 4 3.97669 4C3.97709 4 3.97749 4 3.97788 4C3.97827 4 3.97865 4 3.97903 4C3.97941 4 3.97979 4 3.98016 4C3.98053 4 3.9809 4 3.98126 4C3.98162 4 3.98197 4 3.98232 4C3.98267 4 3.98302 4 3.98336 4C3.9837 4 3.98404 4 3.98437 4C3.9847 4 3.98502 4 3.98534 4C3.98566 4 3.98598 4 3.98629 4C3.9866 4 3.9869 4 3.9872 4C3.9875 4 3.9878 4 3.98809 4C3.98838 4 3.98866 4 3.98894 4C3.98922 4 3.9895 4 3.98977 4C3.99003 4 3.9903 4 3.99056 4C3.99082 4 3.99107 4 3.99132 4C3.99157 4 3.99181 4 3.99205 4C3.99229 4 3.99252 4 3.99275 4C3.99297 4 3.9932 4 3.99341 4C3.99363 4 3.99384 4 3.99405 4C3.99426 4 3.99446 4 3.99465 4C3.99485 4 3.99504 4 3.99523 4C3.99541 4 3.99559 4 3.99577 4C3.99594 4 3.99611 4 3.99628 4C3.99644 4 3.9966 4 3.99675 4C3.99691 4 3.99705 4 3.9972 4C3.99734 4 3.99748 4 3.99761 4C3.99774 4 3.99787 4 3.99799 4C3.99811 4 3.99823 4 3.99834 4C3.99845 4 3.99855 4 3.99865 4C3.99875 4 3.99884 4 3.99893 4C3.99902 4 3.9991 4 3.99918 4C3.99926 4 3.99933 4 3.9994 4C3.99946 4 3.99953 4 3.99958 4C3.99964 4 3.99969 4 3.99973 4C3.99978 4 3.99982 4 3.99985 4C3.99988 4 3.99991 4 3.99993 4C3.99996 4 3.99997 4 3.99998 4C3.99999 4 4 4 4 3C4 2 3.99999 2 3.99998 2C3.99997 2 3.99996 2 3.99993 2C3.99991 2 3.99988 2 3.99985 2C3.99982 2 3.99978 2 3.99973 2C3.99969 2 3.99964 2 3.99958 2C3.99953 2 3.99946 2 3.9994 2C3.99933 2 3.99926 2 3.99918 2C3.9991 2 3.99902 2 3.99893 2C3.99884 2 3.99875 2 3.99865 2C3.99855 2 3.99845 2 3.99834 2C3.99823 2 3.99811 2 3.99799 2C3.99787 2 3.99774 2 3.99761 2C3.99748 2 3.99734 2 3.9972 2C3.99705 2 3.99691 2 3.99675 2C3.9966 2 3.99644 2 3.99628 2C3.99611 2 3.99594 2 3.99577 2C3.99559 2 3.99541 2 3.99523 2C3.99504 2 3.99485 2 3.99465 2C3.99446 2 3.99426 2 3.99405 2C3.99384 2 3.99363 2 3.99341 2C3.9932 2 3.99297 2 3.99275 2C3.99252 2 3.99229 2 3.99205 2C3.99181 2 3.99157 2 3.99132 2C3.99107 2 3.99082 2 3.99056 2C3.9903 2 3.99003 2 3.98977 2C3.9895 2 3.98922 2 3.98894 2C3.98866 2 3.98838 2 3.98809 2C3.9878 2 3.9875 2 3.9872 2C3.9869 2 3.9866 2 3.98629 2C3.98598 2 3.98566 2 3.98534 2C3.98502 2 3.9847 2 3.98437 2C3.98404 2 3.9837 2 3.98336 2C3.98302 2 3.98267 2 3.98232 2C3.98197 2 3.98162 2 3.98126 2C3.9809 2 3.98053 2 3.98016 2C3.97979 2 3.97941 2 3.97903 2C3.97865 2 3.97827 2 3.97788 2C3.97749 2 3.97709 2 3.97669 2C3.97629 2 3.97589 2 3.97548 2C3.97507 2 3.97465 2 3.97423 2C3.97381 2 3.97339 2 3.97296 2C3.97253 2 3.97209 2 3.97165 2C3.97121 2 3.97077 2 3.97032 2C3.96987 2 3.96942 2 3.96896 2C3.9685 2 3.96804 2 3.96757 2C3.9671 2 3.96663 2 3.96615 2C3.96567 2 3.96519 2 3.9647 2C3.96421 2 3.96372 2 3.96322 2C3.96273 2 3.96222 2 3.96172 2C3.96121 2 3.9607 2 3.96018 2C3.95967 2 3.95915 2 3.95862 2C3.9581 2 3.95757 2 3.95703 2C3.9565 2 3.95596 2 3.95541 2C3.95487 2 3.95432 2 3.95377 2C3.95322 2 3.95266 2 3.95209 2C3.95153 2 3.95097 2 3.95039 2C3.94982 2 3.94925 2 3.94866 2C3.94808 2 3.9475 2 3.94691 2C3.94632 2 3.94572 2 3.94512 2C3.94452 2 3.94392 2 3.94331 2C3.9427 2 3.94209 2 3.94147 2C3.94086 2 3.94023 2 3.93961 2C3.93898 2 3.93835 2 3.93772 2C3.93708 2 3.93644 2 3.9358 2C3.93515 2 3.9345 2 3.93385 2C3.9332 2 3.93254 2 3.93188 2C3.93122 2 3.93055 2 3.92988 2C3.92921 2 3.92853 2 3.92785 2C3.92717 2 3.92649 2 3.9258 2C3.92511 2 3.92442 2 3.92372 2C3.92302 2 3.92232 2 3.92162 2C3.92091 2 3.9202 2 3.91949 2C3.91877 2 3.91805 2 3.91733 2C3.91661 2 3.91588 2 3.91515 2C3.91442 2 3.91368 2 3.91294 2C3.9122 2 3.91146 2 3.91071 2C3.90996 2 3.90921 2 3.90845 2C3.90769 2 3.90693 2 3.90616 2C3.9054 2 3.90463 2 3.90385 2C3.90308 2 3.9023 2 3.90152 2C3.90074 2 3.89995 2 3.89916 2C3.89837 2 3.89758 2 3.89678 2C3.89598 2 3.89517 2 3.89437 2C3.89356 2 3.89275 2 3.89193 2C3.89112 2 3.8903 2 3.88947 2C3.88865 2 3.88782 2 3.88699 2C3.88616 2 3.88532 2 3.88448 2C3.88364 2 3.8828 2 3.88195 2C3.8811 2 3.88025 2 3.8794 2C3.87854 2 3.87768 2 3.87682 2C3.87595 2 3.87508 2 3.87421 2C3.87334 2 3.87246 2 3.87158 2C3.8707 2 3.86982 2 3.86893 2C3.86805 2 3.86715 2 3.86626 2C3.86536 2 3.86446 2 3.86356 2C3.86266 2 3.86175 2 3.86084 2C3.85993 2 3.85901 2 3.85809 2C3.85717 2 3.85625 2 3.85532 2C3.8544 2 3.85347 2 3.85253 2C3.8516 2 3.85066 2 3.84972 2C3.84878 2 3.84783 2 3.84688 2C3.84593 2 3.84498 2 3.84402 2C3.84306 2 3.8421 2 3.84114 2C3.84017 2 3.8392 2 3.83823 2C3.83726 2 3.83628 2 3.8353 2C3.83432 2 3.83334 2 3.83235 2C3.83137 2 3.83038 2 3.82938 2C3.82839 2 3.82739 2 3.82639 2C3.82538 2 3.82438 2 3.82337 2C3.82236 2 3.82135 2 3.82033 2C3.81931 2 3.81829 2 3.81727 2C3.81625 2 3.81522 2 3.81419 2C3.81316 2 3.81212 2 3.81109 2C3.81005 2 3.80901 2 3.80796 2C3.80691 2 3.80587 2 3.80481 2C3.80376 2 3.80271 2 3.80165 2C3.80059 2 3.79952 2 3.79846 2C3.79739 2 3.79632 2 3.79525 2C3.79417 2 3.7931 2 3.79202 2C3.79094 2 3.78985 2 3.78876 2C3.78768 2 3.78659 2 3.78549 2C3.7844 2 3.7833 2 3.7822 2C3.7811 2 3.77999 2 3.77889 2C3.77778 2 3.77667 2 3.77555 2C3.77444 2 3.77332 2 3.7722 2C3.77108 2 3.76995 2 3.76882 2C3.7677 2 3.76656 2 3.76543 2C3.76429 2 3.76316 2 3.76202 2C3.76087 2 3.75973 2 3.75858 2C3.75743 2 3.75628 2 3.75513 2C3.75397 2 3.75281 2 3.75165 2C3.75049 2 3.74933 2 3.74816 2C3.74699 2 3.74582 2 3.74465 2C3.74347 2 3.7423 2 3.74112 2C3.73994 2 3.73875 2 3.73757 2C3.73638 2 3.73519 2 3.73399 2C3.7328 2 3.73161 2 3.73041 2C3.72921 2 3.728 2 3.7268 2C3.72559 2 3.72438 2 3.72317 2C3.72196 2 3.72074 2 3.71953 2C3.71831 2 3.71709 2 3.71586 2C3.71464 2 3.71341 2 3.71218 2C3.71095 2 3.70971 2 3.70848 2C3.70724 2 3.706 2 3.70476 2C3.70352 2 3.70227 2 3.70102 2C3.69977 2 3.69852 2 3.69727 2C3.69601 2 3.69475 2 3.69349 2C3.69223 2 3.69097 2 3.6897 2C3.68844 2 3.68717 2 3.68589 2C3.68462 2 3.68335 2 3.68207 2C3.68079 2 3.67951 2 3.67822 2C3.67694 2 3.67565 2 3.67436 2C3.67307 2 3.67178 2 3.67048 2C3.66919 2 3.66789 2 3.66659 2C3.66529 2 3.66398 2 3.66268 2C3.66137 2 3.66006 2 3.65875 2C3.65743 2 3.65612 2 3.6548 2C3.65348 2 3.65216 2 3.65084 2C3.64951 2 3.64819 2 3.64686 2C3.64553 2 3.6442 2 3.64286 2C3.64153 2 3.64019 2 3.63885 2C3.63751 2 3.63616 2 3.63482 2C3.63347 2 3.63212 2 3.63077 2C3.62942 2 3.62807 2 3.62671 2C3.62536 2 3.624 2 3.62264 2C3.62127 2 3.61991 2 3.61854 2C3.61717 2 3.61581 2 3.61443 2C3.61306 2 3.61169 2 3.61031 2C3.60893 2 3.60755 2 3.60617 2C3.60479 2 3.6034 2 3.60201 2C3.60063 2 3.59924 2 3.59784 2C3.59645 2 3.59505 2 3.59366 2C3.59226 2 3.59086 2 3.58945 2C3.58805 2 3.58665 2 3.58524 2C3.58383 2 3.58242 2 3.58101 2C3.57959 2 3.57818 2 3.57676 2C3.57534 2 3.57392 2 3.5725 2C3.57108 2 3.56965 2 3.56823 2C3.5668 2 3.56537 2 3.56394 2C3.5625 2 3.56107 2 3.55963 2C3.5582 2 3.55676 2 3.55531 2C3.55387 2 3.55243 2 3.55098 2C3.54954 2 3.54809 2 3.54664 2C3.54518 2 3.54373 2 3.54228 2C3.54082 2 3.53936 2 3.5379 2C3.53644 2 3.53498 2 3.53351 2C3.53205 2 3.53058 2 3.52911 2C3.52764 2 3.52617 2 3.5247 2C3.52322 2 3.52175 2 3.52027 2C3.51879 2 3.51731 2 3.51583 2C3.51434 2 3.51286 2 3.51137 2C3.50988 2 3.5084 2 3.5069 2C3.50541 2 3.50392 2 3.50242 2C3.50093 2 3.49943 2 3.49793 2C3.49643 2 3.49493 2 3.49342 2C3.49192 2 3.49041 2 3.4889 2C3.4874 2 3.48588 2 3.48437 2C3.48286 2 3.48134 2 3.47983 2C3.47831 2 3.47679 2 3.47527 2C3.47375 2 3.47223 2 3.4707 2C3.46918 2 3.46765 2 3.46612 2C3.46459 2 3.46306 2 3.46153 2C3.46 2 3.45846 2 3.45693 2C3.45539 2 3.45385 2 3.45231 2C3.45077 2 3.44923 2 3.44768 2C3.44614 2 3.44459 2 3.44304 2C3.44149 2 3.43994 2 3.43839 2C3.43684 2 3.43528 2 3.43373 2C3.43217 2 3.43061 2 3.42905 2C3.42749 2 3.42593 2 3.42437 2C3.42281 2 3.42124 2 3.41967 2C3.41811 2 3.41654 2 3.41497 2C3.4134 2 3.41182 2 3.41025 2C3.40868 2 3.4071 2 3.40552 2C3.40394 2 3.40236 2 3.40078 2C3.3992 2 3.39762 2 3.39603 2C3.39445 2 3.39286 2 3.39127 2C3.38969 2 3.3881 2 3.3865 2C3.38491 2 3.38332 2 3.38172 2C3.38013 2 3.37853 2 3.37693 2C3.37534 2 3.37374 2 3.37213 2C3.37053 2 3.36893 2 3.36732 2C3.36572 2 3.36411 2 3.36251 2C3.3609 2 3.35929 2 3.35768 2C3.35606 2 3.35445 2 3.35284 2C3.35122 2 3.34961 2 3.34799 2C3.34637 2 3.34475 2 3.34313 2C3.34151 2 3.33989 2 3.33827 2C3.33664 2 3.33502 2 3.33339 2C3.33176 2 3.33013 2 3.3285 2C3.32688 2 3.32524 2 3.32361 2C3.32198 2 3.32034 2 3.31871 2C3.31707 2 3.31544 2 3.3138 2C3.31216 2 3.31052 2 3.30888 2C3.30724 2 3.30559 2 3.30395 2C3.30231 2 3.30066 2 3.29901 2C3.29737 2 3.29572 2 3.29407 2C3.29242 2 3.29077 2 3.28912 2C3.28747 2 3.28581 2 3.28416 2C3.2825 2 3.28085 2 3.27919 2C3.27753 2 3.27587 2 3.27421 2C3.27255 2 3.27089 2 3.26923 2C3.26757 2 3.2659 2 3.26424 2C3.26257 2 3.26091 2 3.25924 2C3.25757 2 3.2559 2 3.25423 2C3.25256 2 3.25089 2 3.24922 2C3.24755 2 3.24587 2 3.2442 2C3.24252 2 3.24085 2 3.23917 2C3.23749 2 3.23581 2 3.23414 2C3.23246 2 3.23078 2 3.22909 2C3.22741 2 3.22573 2 3.22405 2C3.22236 2 3.22068 2 3.21899 2C3.2173 2 3.21562 2 3.21393 2C3.21224 2 3.21055 2 3.20886 2C3.20717 2 3.20548 2 3.20379 2C3.2021 2 3.2004 2 3.19871 2C3.19701 2 3.19532 2 3.19362 2C3.19193 2 3.19023 2 3.18853 2C3.18683 2 3.18513 2 3.18343 2C3.18173 2 3.18003 2 3.17833 2C3.17663 2 3.17492 2 3.17322 2C3.17151 2 3.16981 2 3.1681 2C3.1664 2 3.16469 2 3.16298 2C3.16128 2 3.15957 2 3.15786 2C3.15615 2 3.15444 2 3.15273 2C3.15102 2 3.1493 2 3.14759 2C3.14588 2 3.14416 2 3.14245 2C3.14074 2 3.13902 2 3.1373 2C3.13559 2 3.13387 2 3.13215 2C3.13044 2 3.12872 2 3.127 2C3.12528 2 3.12356 2 3.12184 2C3.12012 2 3.1184 2 3.11667 2C3.11495 2 3.11323 2 3.11151 2C3.10978 2 3.10806 2 3.10633 2C3.10461 2 3.10288 2 3.10116 2C3.09943 2 3.0977 2 3.09598 2C3.09425 2 3.09252 2 3.09079 2C3.08906 2 3.08733 2 3.0856 2C3.08387 2 3.08214 2 3.08041 2C3.07868 2 3.07695 2 3.07521 2C3.07348 2 3.07175 2 3.07001 2C3.06828 2 3.06655 2 3.06481 2C3.06308 2 3.06134 2 3.05961 2C3.05787 2 3.05613 2 3.0544 2C3.05266 2 3.05092 2 3.04918 2C3.04745 2 3.04571 2 3.04397 2C3.04223 2 3.04049 2 3.03875 2C3.03701 2 3.03527 2 3.03353 2C3.03179 2 3.03005 2 3.02831 2C3.02656 2 3.02482 2 3.02308 2C3.02134 2 3.0196 2 3.01785 2C3.01611 2 3.01437 2 3.01262 2C3.01088 2 3.00913 2 3.00739 2C3.00564 2 3.0039 2 3.00215 2C3.00041 2 2.99866 2 2.99692 2C2.99517 2 2.99343 2 2.99168 2C2.98993 2 2.98819 2 2.98644 2C2.98469 2 2.98294 2 2.9812 2C2.97945 2 2.9777 2 2.97595 2C2.9742 2 2.97246 2 2.97071 2C2.96896 2 2.96721 2 2.96546 2C2.96371 2 2.96196 2 2.96021 2C2.95846 2 2.95671 2 2.95497 2C2.95322 2 2.95147 2 2.94972 2C2.94797 2 2.94622 2 2.94447 2C2.94271 2 2.94096 2 2.93921 2C2.93746 2 2.93571 2 2.93396 2C2.93221 2 2.93046 2 2.92871 2C2.92696 2 2.92521 2 2.92346 2C2.92171 2 2.91995 2 2.9182 2C2.91645 2 2.9147 2 2.91295 2C2.9112 2 2.90945 2 2.9077 2C2.90594 2 2.90419 2 2.90244 2C2.90069 2 2.89894 2 2.89719 2C2.89544 2 2.89369 2 2.89193 2C2.89018 2 2.88843 2 2.88668 2C2.88493 2 2.88318 2 2.88143 2C2.87968 2 2.87793 2 2.87618 2C2.87443 2 2.87267 2 2.87092 2C2.86917 2 2.86742 2 2.86567 2C2.86392 2 2.86217 2 2.86042 2C2.85867 2 2.85692 2 2.85517 2C2.85342 2 2.85167 2 2.84993 2C2.84818 2 2.84643 2 2.84468 2C2.84293 2 2.84118 2 2.83943 2C2.83768 2 2.83594 2 2.83419 2C2.83244 2 2.83069 2 2.82895 2C2.8272 2 2.82545 2 2.8237 2C2.82196 2 2.82021 2 2.81846 2C2.81672 2 2.81497 2 2.81323 2C2.81148 2 2.80974 2 2.80799 2C2.80625 2 2.8045 2 2.80276 2C2.80101 2 2.79927 2 2.79752 2C2.79578 2 2.79404 2 2.7923 2C2.79055 2 2.78881 2 2.78707 2C2.78533 2 2.78358 2 2.78184 2C2.7801 2 2.77836 2 2.77662 2C2.77488 2 2.77314 2 2.7714 2C2.76966 2 2.76792 2 2.76618 2C2.76445 2 2.76271 2 2.76097 2C2.75923 2 2.7575 2 2.75576 2C2.75402 2 2.75229 2 2.75055 2C2.74882 2 2.74708 2 2.74535 2C2.74361 2 2.74188 2 2.74015 2C2.73841 2 2.73668 2 2.73495 2C2.73322 2 2.73149 2 2.72975 2C2.72802 2 2.72629 2 2.72456 2C2.72283 2 2.7211 2 2.71938 2C2.71765 2 2.71592 2 2.71419 2C2.71247 2 2.71074 2 2.70901 2C2.70729 2 2.70556 2 2.70384 2C2.70211 2 2.70039 2 2.69867 2C2.69695 2 2.69522 2 2.6935 2C2.69178 2 2.69006 2 2.68834 2C2.68662 2 2.6849 2 2.68318 2C2.68146 2 2.67975 2 2.67803 2C2.67631 2 2.6746 2 2.67288 2C2.67116 2 2.66945 2 2.66774 2C2.66602 2 2.66431 2 2.6626 2C2.66089 2 2.65917 2 2.65746 2C2.65575 2 2.65404 2 2.65234 2C2.65063 2 2.64892 2 2.64721 2C2.64551 2 2.6438 2 2.64209 2C2.64039 2 2.63868 2 2.63698 2C2.63528 2 2.63358 2 2.63187 2C2.63017 2 2.62847 2 2.62677 2C2.62507 2 2.62338 2 2.62168 2C2.61998 2 2.61828 2 2.61659 2C2.61489 2 2.6132 2 2.61151 2C2.60981 2 2.60812 2 2.60643 2C2.60474 2 2.60305 2 2.60136 2C2.59967 2 2.59798 2 2.59629 2C2.5946 2 2.59292 2 2.59123 2C2.58955 2 2.58786 2 2.58618 2C2.5845 2 2.58282 2 2.58114 2C2.57946 2 2.57778 2 2.5761 2C2.57442 2 2.57274 2 2.57107 2C2.56939 2 2.56772 2 2.56604 2C2.56437 2 2.5627 2 2.56102 2C2.55935 2 2.55768 2 2.55601 2C2.55434 2 2.55268 2 2.55101 2C2.54934 2 2.54768 2 2.54601 2C2.54435 2 2.54269 2 2.54103 2C2.53937 2 2.53771 2 2.53605 2C2.53439 2 2.53273 2 2.53107 2C2.52942 2 2.52776 2 2.52611 2C2.52445 2 2.5228 2 2.52115 2C2.5195 2 2.51785 2 2.5162 2C2.51455 2 2.51291 2 2.51126 2C2.50962 2 2.50797 2 2.50633 2C2.50469 2 2.50304 2 2.5014 2C2.49976 2 2.49813 2 2.49649 2C2.49485 2 2.49322 2 2.49158 2C2.48995 2 2.48831 2 2.48668 2C2.48505 2 2.48342 2 2.48179 2C2.48017 2 2.47854 2 2.47691 2C2.47529 2 2.47366 2 2.47204 2C2.47042 2 2.4688 2 2.46718 2C2.46556 2 2.46394 2 2.46233 2C2.46071 2 2.4591 2 2.45748 2C2.45587 2 2.45426 2 2.45265 2C2.45104 2 2.44943 2 2.44782 2C2.44622 2 2.44461 2 2.44301 2C2.4414 2 2.4398 2 2.4382 2C2.4366 2 2.435 2 2.43341 2C2.43181 2 2.43021 2 2.42862 2C2.42703 2 2.42544 2 2.42384 2C2.42225 2 2.42067 2 2.41908 2C2.41749 2 2.41591 2 2.41432 2C2.41274 2 2.41116 2 2.40958 2C2.408 2 2.40642 2 2.40485 2C2.40327 2 2.4017 2 2.40012 2C2.39855 2 2.39698 2 2.39541 2C2.39384 2 2.39227 2 2.39071 2C2.38914 2 2.38758 2 2.38602 2C2.38446 2 2.3829 2 2.38134 2C2.37978 2 2.37822 2 2.37667 2C2.37511 2 2.37356 2 2.37201 2C2.37046 2 2.36891 2 2.36737 2C2.36582 2 2.36427 2 2.36273 2C2.36119 2 2.35965 2 2.35811 2C2.35657 2 2.35503 2 2.3535 2C2.35196 2 2.35043 2 2.3489 2C2.34737 2 2.34584 2 2.34431 2C2.34278 2 2.34126 2 2.33974 2C2.33821 2 2.33669 2 2.33517 2C2.33365 2 2.33214 2 2.33062 2C2.32911 2 2.32759 2 2.32608 2C2.32457 2 2.32306 2 2.32156 2C2.32005 2 2.31855 2 2.31704 2C2.31554 2 2.31404 2 2.31254 2C2.31104 2 2.30955 2 2.30805 2C2.30656 2 2.30507 2 2.30358 2C2.30209 2 2.3006 2 2.29912 2C2.29763 2 2.29615 2 2.29467 2C2.29319 2 2.29171 2 2.29023 2C2.28876 2 2.28728 2 2.28581 2C2.28434 2 2.28287 2 2.2814 2C2.27993 2 2.27847 2 2.277 2C2.27554 2 2.27408 2 2.27262 2C2.27116 2 2.26971 2 2.26826 2C2.2668 2 2.26535 2 2.2639 2C2.26245 2 2.26101 2 2.25956 2C2.25812 2 2.25667 2 2.25523 2C2.25379 2 2.25236 2 2.25092 2C2.24949 2 2.24806 2 2.24662 2C2.24519 2 2.24377 2 2.24234 2C2.24092 2 2.23949 2 2.23807 2C2.23665 2 2.23523 2 2.23382 2C2.2324 2 2.23099 2 2.22958 2C2.22817 2 2.22676 2 2.22536 2C2.22395 2 2.22255 2 2.22115 2C2.21974 2 2.21835 2 2.21695 2C2.21556 2 2.21416 2 2.21277 2C2.21138 2 2.20999 2 2.20861 2C2.20722 2 2.20584 2 2.20446 2C2.20308 2 2.2017 2 2.20033 2C2.19895 2 2.19758 2 2.19621 2C2.19484 2 2.19347 2 2.19211 2C2.19074 2 2.18938 2 2.18802 2C2.18666 2 2.1853 2 2.18395 2C2.1826 2 2.18124 2 2.1799 2C2.17855 2 2.1772 2 2.17586 2C2.17451 2 2.17317 2 2.17184 2C2.1705 2 2.16916 2 2.16783 2C2.1665 2 2.16517 2 2.16384 2C2.16251 2 2.16119 2 2.15987 2C2.15855 2 2.15723 2 2.15591 2C2.1546 2 2.15328 2 2.15197 2C2.15066 2 2.14936 2 2.14805 2C2.14675 2 2.14545 2 2.14415 2C2.14285 2 2.14155 2 2.14026 2C2.13897 2 2.13768 2 2.13639 2C2.1351 2 2.13382 2 2.13253 2C2.13125 2 2.12997 2 2.1287 2C2.12742 2 2.12615 2 2.12488 2C2.12361 2 2.12234 2 2.12108 2C2.11982 2 2.11855 2 2.1173 2C2.11604 2 2.11478 2 2.11353 2C2.11228 2 2.11103 2 2.10978 2C2.10854 2 2.10729 2 2.10605 2C2.10481 2 2.10358 2 2.10234 2C2.10111 2 2.09988 2 2.09865 2C2.09742 2 2.0962 2 2.09498 2C2.09375 2 2.09254 2 2.09132 2C2.0901 2 2.08889 2 2.08768 2C2.08647 2 2.08527 2 2.08406 2C2.08286 2 2.08166 2 2.08046 2C2.07927 2 2.07807 2 2.07688 2C2.07569 2 2.07451 2 2.07332 2C2.07214 2 2.07096 2 2.06978 2C2.0686 2 2.06743 2 2.06626 2C2.06509 2 2.06392 2 2.06275 2C2.06159 2 2.06043 2 2.05927 2C2.05811 2 2.05695 2 2.0558 2C2.05465 2 2.0535 2 2.05236 2C2.05121 2 2.05007 2 2.04893 2C2.04779 2 2.04666 2 2.04553 2C2.0444 2 2.04327 2 2.04214 2C2.04102 2 2.03989 2 2.03878 2C2.03766 2 2.03654 2 2.03543 2C2.03432 2 2.03321 2 2.03211 2C2.031 2 2.0299 2 2.0288 2C2.0277 2 2.02661 2 2.02552 2C2.02443 2 2.02334 2 2.02225 2C2.02117 2 2.02009 2 2.01901 2C2.01793 2 2.01686 2 2.01579 2C2.01472 2 2.01365 2 2.01259 2C2.01153 2 2.01047 2 2.00941 2C2.00835 2 2.0073 2 2.00625 2C2.0052 2 2.00416 2 2.00312 2C2.00207 2 2.00103 2 2 2V4ZM4 3C3.05132 3.31623 3.05132 3.31624 3.05133 3.31625C3.05133 3.31627 3.05134 3.3163 3.05135 3.31633C3.05137 3.31639 3.05141 3.31651 3.05145 3.31664C3.05155 3.31691 3.05168 3.31732 3.05186 3.31786C3.05222 3.31895 3.05276 3.32057 3.05348 3.32271C3.05491 3.327 3.05703 3.33337 3.05981 3.34172C3.06538 3.3584 3.07357 3.38298 3.08408 3.41451C3.1051 3.47759 3.13542 3.56853 3.17257 3.67999C3.24688 3.90292 3.34855 4.20793 3.458 4.53627C3.67689 5.19295 3.92689 5.94295 4.05132 6.31623L5.94868 5.68377C5.82426 5.31049 5.57426 4.56049 5.35536 3.90381C5.24592 3.57547 5.14425 3.27046 5.06994 3.04754C5.03278 2.93607 5.00247 2.84513 4.98145 2.78206C4.97093 2.75052 4.96274 2.72595 4.95718 2.70926C4.9544 2.70092 4.95227 2.69455 4.95085 2.69026C4.95013 2.68812 4.94959 2.68649 4.94923 2.68541C4.94905 2.68486 4.94891 2.68446 4.94882 2.68418C4.94878 2.68405 4.94874 2.68394 4.94872 2.68388C4.94871 2.68384 4.9487 2.68382 4.94869 2.6838C4.94869 2.68378 4.94868 2.68377 4 3Z" fill="black"/>
</g>
</svg>
