<svg width="24" height="24" viewBox="0 0 24 24" fill="none" xmlns="http://www.w3.org/2000/svg">
<g id="cart-01">
<path id="icon" d="M7 17H6C6 17.5523 6.44772 18 7 18V17ZM18 18C18.5523 18 19 17.5523 19 17C19 16.4477 18.5523 16 18 16V18ZM2 1C1.44772 1 1 1.44772 1 2C1 2.55228 1.44772 3 2 3V1ZM4 2L4.94868 1.68377C4.81257 1.27543 4.43043 1 4 1V2ZM20 12L20.0774 12.997C20.4941 12.9646 20.8467 12.6766 20.9615 12.2747L20 12ZM22 5L22.9615 5.27472C23.0477 4.973 22.9873 4.64832 22.7983 4.3978C22.6094 4.14729 22.3138 4 22 4V5ZM8.5 19.5C7.94772 19.5 7.5 19.9477 7.5 20.5C7.5 21.0523 7.94772 21.5 8.5 21.5V19.5ZM8.51 21.5C9.06228 21.5 9.51 21.0523 9.51 20.5C9.51 19.9477 9.06228 19.5 8.51 19.5V21.5ZM16.5 19.5C15.9477 19.5 15.5 19.9477 15.5 20.5C15.5 21.0523 15.9477 21.5 16.5 21.5V19.5ZM16.51 21.5C17.0623 21.5 17.51 21.0523 17.51 20.5C17.51 19.9477 17.0623 19.5 16.51 19.5V21.5ZM4.02986 5.24254L6.02986 13.2425L7.97014 12.7575L5.97014 4.75746L4.02986 5.24254ZM6 13V17H8V13H6ZM7 18H18V16H7V18ZM2 3H4V1H2V3ZM3.05132 2.31623L4.05132 5.31623L5.94868 4.68377L4.94868 1.68377L3.05132 2.31623ZM20 12C19.9226 11.003 19.9225 11.003 19.9224 11.003C19.9224 11.003 19.9222 11.003 19.9221 11.003C19.9218 11.0031 19.9213 11.0031 19.9207 11.0031C19.9194 11.0032 19.9176 11.0034 19.9151 11.0036C19.9102 11.004 19.9028 11.0045 19.893 11.0053C19.8735 11.0068 19.8445 11.0091 19.8066 11.012C19.7307 11.0179 19.619 11.0266 19.4759 11.0377C19.1897 11.0599 18.7778 11.0918 18.275 11.1308C17.2694 11.2088 15.9002 11.3148 14.4458 11.4272C11.5361 11.652 8.28796 11.9019 6.92613 12.0027L7.07387 13.9973C8.43961 13.8961 11.6915 13.646 14.5999 13.4213C16.0545 13.3089 17.4239 13.2028 18.4296 13.1248C18.9325 13.0859 19.3444 13.0539 19.6307 13.0317C19.7738 13.0206 19.8855 13.0119 19.9614 13.006C19.9993 13.0031 20.0284 13.0008 20.0479 12.9993C20.0576 12.9985 20.065 12.998 20.07 12.9976C20.0725 12.9974 20.0743 12.9972 20.0756 12.9971C20.0762 12.9971 20.0767 12.9971 20.077 12.997C20.0771 12.997 20.0772 12.997 20.0773 12.997C20.0774 12.997 20.0774 12.997 20 12ZM5 6H22V4H5V6ZM21.0385 4.72528L19.0385 11.7253L20.9615 12.2747L22.9615 5.27472L21.0385 4.72528ZM8.5 21.5H8.51V19.5H8.5V21.5ZM8 20.5C8 20.2239 8.22386 20 8.5 20V22C9.32843 22 10 21.3284 10 20.5H8ZM8.5 20C8.77614 20 9 20.2239 9 20.5H7C7 21.3284 7.67157 22 8.5 22V20ZM9 20.5C9 20.7761 8.77614 21 8.5 21V19C7.67157 19 7 19.6716 7 20.5H9ZM8.5 21C8.22386 21 8 20.7761 8 20.5H10C10 19.6716 9.32843 19 8.5 19V21ZM16.5 21.5H16.51V19.5H16.5V21.5ZM16 20.5C16 20.2239 16.2239 20 16.5 20V22C17.3284 22 18 21.3284 18 20.5H16ZM16.5 20C16.7761 20 17 20.2239 17 20.5H15C15 21.3284 15.6716 22 16.5 22V20ZM17 20.5C17 20.7761 16.7761 21 16.5 21V19C15.6716 19 15 19.6716 15 20.5H17ZM16.5 21C16.2239 21 16 20.7761 16 20.5H18C18 19.6716 17.3284 19 16.5 19V21Z" fill="black"/>
</g>
</svg>
