<svg width="24" height="24" viewBox="0 0 24 24" fill="none" xmlns="http://www.w3.org/2000/svg">
<g id="catalog-02">
<path id="icon" d="M20.294 17.7082C20.6852 18.0981 21.3183 18.0971 21.7082 17.706C22.0981 17.3148 22.0971 16.6817 21.706 16.2918L20.294 17.7082ZM19.2931 13.8865C18.902 13.4966 18.2688 13.4976 17.8789 13.8888C17.489 14.2799 17.49 14.9131 17.8812 15.303L19.2931 13.8865ZM3 5C2.44772 5 2 5.44772 2 6C2 6.55228 2.44772 7 3 7V5ZM8 7C8.55228 7 9 6.55228 9 6C9 5.44772 8.55228 5 8 5V7ZM3 11C2.44772 11 2 11.4477 2 12C2 12.5523 2.44771 13 3 13L3 11ZM6 13C6.55228 13 7 12.5523 7 12C7 11.4477 6.55228 11 6 11L6 13ZM3 17C2.44772 17 2 17.4477 2 18C2 18.5523 2.44772 19 3 19L3 17ZM8 19C8.55228 19 9 18.5523 9 18C9 17.4477 8.55228 17 8 17V19ZM18.8889 11.4444C18.8889 13.3468 17.3468 14.8889 15.4444 14.8889V16.8889C18.4513 16.8889 20.8889 14.4513 20.8889 11.4444H18.8889ZM15.4444 14.8889C13.5421 14.8889 12 13.3468 12 11.4444H10C10 14.4513 12.4376 16.8889 15.4444 16.8889V14.8889ZM12 11.4444C12 9.54213 13.5421 8 15.4444 8V6C12.4376 6 10 8.43756 10 11.4444H12ZM15.4444 8C17.3468 8 18.8889 9.54213 18.8889 11.4444H20.8889C20.8889 8.43756 18.4513 6 15.4444 6V8ZM21.706 16.2918L19.2931 13.8865L17.8812 15.303L20.294 17.7082L21.706 16.2918ZM3 7H8V5H3V7ZM3 13L6 13L6 11L3 11L3 13ZM3 19L8 19V17L3 17L3 19Z" fill="black"/>
</g>
</svg>
