<svg width="24" height="24" viewBox="0 0 24 24" fill="none" xmlns="http://www.w3.org/2000/svg">
<g id="change-up">
<path id="icon" d="M21 6H22C22 5.44772 21.5523 5 21 5V6ZM15 5C14.4477 5 14 5.44772 14 6C14 6.55228 14.4477 7 15 7V5ZM20 12C20 12.5523 20.4477 13 21 13C21.5523 13 22 12.5523 22 12H20ZM2.29289 17.2929C1.90237 17.6834 1.90237 18.3166 2.29289 18.7071C2.68342 19.0976 3.31658 19.0976 3.70711 18.7071L2.29289 17.2929ZM9 12L9.8 11.4C9.62607 11.1681 9.36005 11.0231 9.07089 11.0025C8.78173 10.982 8.49788 11.0879 8.29289 11.2929L9 12ZM12 16L11.2 16.6C11.3794 16.8393 11.6566 16.9857 11.9554 16.999C12.2541 17.0124 12.5432 16.8913 12.7433 16.669L12 16ZM15 7H21V5H15V7ZM20 6V12H22V6H20ZM3.70711 18.7071L9.70711 12.7071L8.29289 11.2929L2.29289 17.2929L3.70711 18.7071ZM8.2 12.6L11.2 16.6L12.8 15.4L9.8 11.4L8.2 12.6ZM12.7433 16.669L21.7433 6.66896L20.2567 5.33104L11.2567 15.331L12.7433 16.669Z" fill="black"/>
</g>
</svg>
