<svg width="24" height="24" viewBox="0 0 24 24" fill="none" xmlns="http://www.w3.org/2000/svg">
<g id="change-down">
<path id="icon" d="M21 18V19C21.5523 19 22 18.5523 22 18H21ZM15 17C14.4477 17 14 17.4477 14 18C14 18.5523 14.4477 19 15 19V17ZM22 12C22 11.4477 21.5523 11 21 11C20.4477 11 20 11.4477 20 12H22ZM3.70711 5.29289C3.31658 4.90237 2.68342 4.90237 2.29289 5.29289C1.90237 5.68342 1.90237 6.31658 2.29289 6.70711L3.70711 5.29289ZM9 12L8.29289 12.7071C8.49788 12.9121 8.78173 13.018 9.07089 12.9975C9.36005 12.9769 9.62607 12.8319 9.8 12.6L9 12ZM12 8L12.7433 7.33104C12.5432 7.10873 12.2541 6.98765 11.9554 7.001C11.6566 7.01435 11.3794 7.16073 11.2 7.4L12 8ZM15 19H21V17H15V19ZM22 18V12H20V18H22ZM2.29289 6.70711L8.29289 12.7071L9.70711 11.2929L3.70711 5.29289L2.29289 6.70711ZM9.8 12.6L12.8 8.6L11.2 7.4L8.2 11.4L9.8 12.6ZM11.2567 8.66896L20.2567 18.669L21.7433 17.331L12.7433 7.33104L11.2567 8.66896Z" fill="black"/>
</g>
</svg>
