<svg width="24" height="24" viewBox="0 0 24 24" fill="none" xmlns="http://www.w3.org/2000/svg">
<g id="cloud-up">
<path id="icon" d="M6.0691 7.0865L6.25414 8.06923L6.95061 7.93809L7.05763 7.2375L6.0691 7.0865ZM17.9309 7.0865L16.9424 7.2375L17.0494 7.93809L17.7459 8.06923L17.9309 7.0865ZM3.39942 16.7999C3.84101 17.1316 4.46788 17.0425 4.79957 16.6009C5.13126 16.1594 5.04217 15.5325 4.60058 15.2008L3.39942 16.7999ZM19.3998 15.2005C18.9583 15.5323 18.8692 16.1591 19.201 16.6007C19.5327 17.0422 20.1596 17.1312 20.6012 16.7995L19.3998 15.2005ZM11 21C11 21.5523 11.4477 22 12 22C12.5523 22 13 21.5523 13 21H11ZM12 11L12.7071 10.2929C12.3166 9.90237 11.6834 9.90237 11.2929 10.2929L12 11ZM7.29289 14.2929C6.90237 14.6834 6.90237 15.3166 7.29289 15.7071C7.68342 16.0976 8.31658 16.0976 8.70711 15.7071L7.29289 14.2929ZM15.2929 15.7071C15.6834 16.0976 16.3166 16.0976 16.7071 15.7071C17.0976 15.3166 17.0976 14.6834 16.7071 14.2929L15.2929 15.7071ZM5.88405 6.10377C3.10359 6.62732 1 9.06693 1 12H3C3 10.0464 4.40145 8.41809 6.25414 8.06923L5.88405 6.10377ZM12 1C8.49543 1 5.59398 3.57444 5.08056 6.9355L7.05763 7.2375C7.42413 4.83825 9.4983 3 12 3V1ZM18.9194 6.9355C18.406 3.57444 15.5046 1 12 1V3C14.5017 3 16.5759 4.83825 16.9424 7.2375L18.9194 6.9355ZM17.7459 8.06923C19.5985 8.41809 21 10.0464 21 12H23C23 9.06693 20.8964 6.62732 18.1159 6.10377L17.7459 8.06923ZM1 12C1 13.9636 1.94434 15.707 3.39942 16.7999L4.60058 15.2008C3.62676 14.4693 3 13.308 3 12H1ZM21 12C21 13.3078 20.3734 14.469 19.3998 15.2005L20.6012 16.7995C22.0559 15.7065 23 13.9634 23 12H21ZM13 21V11H11V21H13ZM8.70711 15.7071L12.7071 11.7071L11.2929 10.2929L7.29289 14.2929L8.70711 15.7071ZM11.2929 11.7071L15.2929 15.7071L16.7071 14.2929L12.7071 10.2929L11.2929 11.7071Z" fill="black"/>
</g>
</svg>
