<svg width="24" height="24" viewBox="0 0 24 24" fill="none" xmlns="http://www.w3.org/2000/svg">
<g id="component">
<g id="icon">
<path d="M8.11697 6.03056C7.66883 5.58242 7.66883 4.85584 8.11697 4.4077L11.1886 1.3361C11.6367 0.887965 12.3633 0.887966 12.8114 1.3361L15.883 4.4077C16.3312 4.85584 16.3312 5.58242 15.883 6.03056L12.8114 9.10216C12.3633 9.5503 11.6367 9.5503 11.1886 9.10216L8.11697 6.03056Z" fill="black"/>
<path d="M14.8979 12.8114C14.4497 12.3633 14.4497 11.6367 14.8979 11.1886L17.9694 8.11698C18.4176 7.66884 19.1442 7.66884 19.5923 8.11698L22.6639 11.1886C23.112 11.6367 23.112 12.3633 22.6639 12.8114L19.5923 15.883C19.1442 16.3312 18.4176 16.3312 17.9694 15.883L14.8979 12.8114Z" fill="black"/>
<path d="M1.3361 12.8114C0.887965 12.3633 0.887966 11.6367 1.3361 11.1886L4.4077 8.11698C4.85584 7.66884 5.58241 7.66884 6.03055 8.11698L9.10215 11.1886C9.55029 11.6367 9.55028 12.3633 9.10215 12.8114L6.03055 15.883C5.58241 16.3312 4.85584 16.3312 4.4077 15.883L1.3361 12.8114Z" fill="black"/>
<path d="M8.11697 19.5923C7.66883 19.1442 7.66883 18.4176 8.11697 17.9694L11.1886 14.8978C11.6367 14.4497 12.3633 14.4497 12.8114 14.8978L15.883 17.9694C16.3312 18.4176 16.3312 19.1442 15.883 19.5923L12.8114 22.6639C12.3633 23.112 11.6367 23.112 11.1886 22.6639L8.11697 19.5923Z" fill="black"/>
</g>
</g>
</svg>
