<svg width="24" height="24" viewBox="0 0 24 24" fill="none" xmlns="http://www.w3.org/2000/svg">
<g id="credit-card">
<path id="icon" d="M18 16C18.5523 16 19 15.5523 19 15C19 14.4477 18.5523 14 18 14V16ZM15 14C14.4477 14 14 14.4477 14 15C14 15.5523 14.4477 16 15 16V14ZM4 6H20V4H4V6ZM21 7V17H23V7H21ZM20 18H4V20H20V18ZM3 17V7H1V17H3ZM4 18C3.44772 18 3 17.5523 3 17H1C1 18.6569 2.34315 20 4 20V18ZM21 17C21 17.5523 20.5523 18 20 18V20C21.6569 20 23 18.6569 23 17H21ZM20 6C20.5523 6 21 6.44772 21 7H23C23 5.34315 21.6569 4 20 4V6ZM4 4C2.34315 4 1 5.34315 1 7H3C3 6.44772 3.44772 6 4 6V4ZM3 11H21V9H3V11ZM18 14H15V16H18V14Z" fill="black"/>
</g>
</svg>
