<svg width="24" height="24" viewBox="0 0 24 24" fill="none" xmlns="http://www.w3.org/2000/svg">
<g id="crown-01">
<path id="icon" d="M4.92536 16.5894L3.94149 16.7683H3.94149L4.92536 16.5894ZM3.239 7.31451L4.22287 7.13562H4.22287L3.239 7.31451ZM4.04329 6.83463L3.41859 7.6155L3.41859 7.6155L4.04329 6.83463ZM7.51704 9.61363L6.89235 10.3945L6.89235 10.3945L7.51704 9.61363ZM8.2766 9.4468L9.17103 9.89402L9.17103 9.89402L8.2766 9.4468ZM11.5528 2.89443L10.6584 2.44721L10.6584 2.44721L11.5528 2.89443ZM12.4472 2.89443L11.5528 3.34164L11.5528 3.34164L12.4472 2.89443ZM15.7234 9.4468L16.6178 8.99959V8.99959L15.7234 9.4468ZM16.483 9.61363L17.1077 10.3945L17.1077 10.3945L16.483 9.61363ZM19.9567 6.83463L20.5814 7.6155L20.5814 7.6155L19.9567 6.83463ZM20.761 7.3145L19.7771 7.13562L20.761 7.3145ZM19.0746 16.5894L18.0908 16.4106L18.0908 16.4106L19.0746 16.5894ZM6 20C5.44772 20 5 20.4477 5 21C5 21.5523 5.44772 22 6 22V20ZM18 22C18.5523 22 19 21.5523 19 21C19 20.4477 18.5523 20 18 20V22ZM12.01 14C12.5623 14 13.01 13.5523 13.01 13C13.01 12.4477 12.5623 12 12.01 12V14ZM12 12C11.4477 12 11 12.4477 11 13C11 13.5523 11.4477 14 12 14V12ZM5.90923 16.4106L4.22287 7.13562L2.25513 7.49339L3.94149 16.7683L5.90923 16.4106ZM3.41859 7.6155L6.89235 10.3945L8.14174 8.83276L4.66798 6.05376L3.41859 7.6155ZM9.17103 9.89402L12.4472 3.34164L10.6584 2.44721L7.38217 8.99959L9.17103 9.89402ZM11.5528 3.34164L14.829 9.89402L16.6178 8.99959L13.3416 2.44721L11.5528 3.34164ZM17.1077 10.3945L20.5814 7.6155L19.332 6.05376L15.8583 8.83276L17.1077 10.3945ZM19.7771 7.13562L18.0908 16.4106L20.0585 16.7683L21.7449 7.49339L19.7771 7.13562ZM5.41729 18H18.5827V16H5.41729V18ZM18.0908 16.4106C18.134 16.1728 18.3411 16 18.5827 16V18C19.3076 18 19.9288 17.4816 20.0585 16.7683L18.0908 16.4106ZM20.5814 7.6155C20.2204 7.90431 19.6944 7.5905 19.7771 7.13562L21.7449 7.49339C21.993 6.12877 20.4151 5.18731 19.332 6.05376L20.5814 7.6155ZM14.829 9.89402C15.2561 10.7482 16.362 10.9911 17.1077 10.3945L15.8583 8.83276C16.1068 8.63391 16.4755 8.71487 16.6178 8.99959L14.829 9.89402ZM12.4472 3.34164C12.263 3.71016 11.7371 3.71017 11.5528 3.34164L13.3416 2.44722C12.7889 1.34164 11.2111 1.34164 10.6584 2.44721L12.4472 3.34164ZM6.89235 10.3945C7.63805 10.9911 8.74395 10.7482 9.17103 9.89402L7.38218 8.99959C7.52453 8.71487 7.89317 8.63391 8.14174 8.83276L6.89235 10.3945ZM4.22287 7.13562C4.30558 7.59049 3.77962 7.90432 3.41859 7.6155L4.66798 6.05376C3.58492 5.18731 2.00702 6.12878 2.25513 7.49339L4.22287 7.13562ZM3.94149 16.7683C4.07117 17.4816 4.69236 18 5.41729 18V16C5.65893 16 5.866 16.1728 5.90923 16.4106L3.94149 16.7683ZM6 22H18V20H6V22ZM12.01 12H12V14H12.01V12Z" fill="black"/>
</g>
</svg>
