<svg width="24" height="24" viewBox="0 0 24 24" fill="none" xmlns="http://www.w3.org/2000/svg">
<g id="dashboard-02">
<path id="icon" d="M1.91573 19.4004C2.13685 19.9065 2.72637 20.1375 3.23246 19.9164C3.73855 19.6952 3.96956 19.1057 3.74844 18.5996L1.91573 19.4004ZM20.2516 18.5996C20.0304 19.1057 20.2615 19.6952 20.7675 19.9164C21.2736 20.1375 21.8631 19.9065 22.0843 19.4004L20.2516 18.5996ZM12 15L11.4855 14.1425C11.1001 14.3738 10.9163 14.8338 11.0363 15.2669C11.1563 15.7001 11.5505 16 12 16V15ZM12.02 16C12.5723 16 13.02 15.5523 13.02 15C13.02 14.4477 12.5723 14 12.02 14V16ZM17.5145 12.8575C17.9881 12.5733 18.1417 11.9591 17.8575 11.4855C17.5734 11.0119 16.9591 10.8583 16.4855 11.1425L17.5145 12.8575ZM5.93709 18.5007C6.21363 18.9788 6.82536 19.1421 7.30342 18.8656C7.78148 18.5891 7.94484 17.9773 7.6683 17.4993L5.93709 18.5007ZM13.6668 10.2843C14.1875 10.4683 14.7588 10.1954 14.9428 9.67466C15.1269 9.15394 14.854 8.58262 14.3332 8.39857L13.6668 10.2843ZM3 15C3 10.0294 7.02944 6 12 6V4C5.92487 4 1 8.92487 1 15H3ZM12 6C16.9706 6 21 10.0294 21 15H23C23 8.92487 18.0751 4 12 4V6ZM3.74844 18.5996C3.26737 17.4986 3 16.2818 3 15H1C1 16.5626 1.32642 18.0516 1.91573 19.4004L3.74844 18.5996ZM21 15C21 16.2818 20.7326 17.4986 20.2516 18.5996L22.0843 19.4004C22.6736 18.0516 23 16.5626 23 15H21ZM12 16H12.02V14H12V16ZM12 15V17C13.1046 17 14 16.1046 14 15H12ZM12 15H10C10 16.1046 10.8954 17 12 17V15ZM12 15V13C10.8954 13 10 13.8954 10 15H12ZM12 15H14C14 13.8954 13.1046 13 12 13V15ZM16.4855 11.1425L11.4855 14.1425L12.5145 15.8575L17.5145 12.8575L16.4855 11.1425ZM7 15C7 12.2386 9.23858 10 12 10V8C8.13401 8 5 11.134 5 15H7ZM7.6683 17.4993C7.24346 16.7649 7 15.9124 7 15H5C5 16.2733 5.3409 17.4701 5.93709 18.5007L7.6683 17.4993ZM12 10C12.5862 10 13.1467 10.1005 13.6668 10.2843L14.3332 8.39857C13.6021 8.14016 12.8164 8 12 8V10Z" fill="black"/>
</g>
</svg>
