<svg width="24" height="24" viewBox="0 0 24 24" fill="none" xmlns="http://www.w3.org/2000/svg">
<g id="dashboard-01">
<path id="icon" d="M1.91573 19.4004C2.13685 19.9065 2.72637 20.1375 3.23246 19.9164C3.73855 19.6952 3.96956 19.1057 3.74844 18.5996L1.91573 19.4004ZM20.2516 18.5996C20.0304 19.1057 20.2615 19.6952 20.7675 19.9164C21.2736 20.1375 21.8631 19.9065 22.0843 19.4004L20.2516 18.5996ZM12 15L11.2929 14.2929C11.0069 14.5789 10.9213 15.009 11.0761 15.3827C11.2309 15.7564 11.5955 16 12 16V15ZM12.02 16C12.5723 16 13.02 15.5523 13.02 15C13.02 14.4477 12.5723 14 12.02 14V16ZM16.8052 11.609C17.1957 11.2185 17.1957 10.5853 16.8052 10.1948C16.4147 9.80429 15.7815 9.80429 15.391 10.1948L16.8052 11.609ZM3 15C3 10.0294 7.02944 6 12 6V4C5.92487 4 1 8.92487 1 15H3ZM12 6C16.9706 6 21 10.0294 21 15H23C23 8.92487 18.0751 4 12 4V6ZM3.74844 18.5996C3.26737 17.4986 3 16.2818 3 15H1C1 16.5626 1.32642 18.0516 1.91573 19.4004L3.74844 18.5996ZM21 15C21 16.2818 20.7326 17.4986 20.2516 18.5996L22.0843 19.4004C22.6736 18.0516 23 16.5626 23 15H21ZM12 16H12.02V14H12V16ZM12 15V17C13.1046 17 14 16.1046 14 15H12ZM12 15H10C10 16.1046 10.8954 17 12 17V15ZM12 15V13C10.8954 13 10 13.8954 10 15H12ZM12 15H14C14 13.8954 13.1046 13 12 13V15ZM15.391 10.1948L11.2929 14.2929L12.7071 15.7071L16.8052 11.609L15.391 10.1948Z" fill="black"/>
</g>
</svg>
