<svg width="24" height="24" viewBox="0 0 24 24" fill="none" xmlns="http://www.w3.org/2000/svg">
<g id="dataflow-02">
<path id="icon" d="M4 18V15C4 13.3431 5.34315 12 7 12C8.65685 12 17 12 17 12C18.6569 12 20 13.3431 20 15V18M12 18V7M3 22H5C5.55228 22 6 21.5523 6 21V19C6 18.4477 5.55228 18 5 18H3C2.44772 18 2 18.4477 2 19V21C2 21.5523 2.44772 22 3 22ZM11 22H13C13.5523 22 14 21.5523 14 21V19C14 18.4477 13.5523 18 13 18H11C10.4477 18 10 18.4477 10 19V21C10 21.5523 10.4477 22 11 22ZM19 22H21C21.5523 22 22 21.5523 22 21V19C22 18.4477 21.5523 18 21 18H19C18.4477 18 18 18.4477 18 19V21C18 21.5523 18.4477 22 19 22ZM7 7H17C17.5523 7 18 6.55228 18 6V4C18 3.44772 17.5523 3 17 3H7C6.44771 3 6 3.44772 6 4V6C6 6.55228 6.44772 7 7 7Z" stroke="black" stroke-width="2"/>
</g>
</svg>
