<svg width="24" height="24" viewBox="0 0 24 24" fill="none" xmlns="http://www.w3.org/2000/svg">
<g id="dataflow-01">
<path id="icon" d="M8 12H9.5M9.5 12C11.1569 12 12.5 13.3431 12.5 15V17.5C12.5 18.3284 13.1716 19 14 19H16M9.5 12C11.1569 12 12.5 10.6569 12.5 9V6.5C12.5 5.67157 13.1716 5 14 5H16M18 8H20C21.1046 8 22 7.10457 22 6V4C22 2.89543 21.1046 2 20 2H18C16.8954 2 16 2.89543 16 4V6C16 7.10457 16.8954 8 18 8ZM4 15H6C7.10457 15 8 14.1046 8 13V11C8 9.89543 7.10457 9 6 9H4C2.89543 9 2 9.89543 2 11V13C2 14.1046 2.89543 15 4 15ZM18 22H20C21.1046 22 22 21.1046 22 20V18C22 16.8954 21.1046 16 20 16H18C16.8954 16 16 16.8954 16 18V20C16 21.1046 16.8954 22 18 22Z" stroke="black" stroke-width="2"/>
</g>
</svg>
