<svg width="24" height="24" viewBox="0 0 24 24" fill="none" xmlns="http://www.w3.org/2000/svg">
<g id="delivery-package-02">
<path id="icon" d="M12 2L12.3714 1.07152C12.133 0.976159 11.867 0.976159 11.6286 1.07152L12 2ZM2 6L1.62861 5.07152C1.24895 5.22339 1 5.5911 1 6H2ZM22 6H23C23 5.5911 22.751 5.22339 22.3714 5.07152L22 6ZM2 18H1C1 18.4089 1.24895 18.7766 1.62861 18.9285L2 18ZM12 22L11.6286 22.9285C11.867 23.0238 12.133 23.0238 12.3714 22.9285L12 22ZM22 18L22.3714 18.9285C22.751 18.7766 23 18.4089 23 18H22ZM16 13C16 13.5523 16.4477 14 17 14C17.5523 14 18 13.5523 18 13H16ZM22.3714 5.07152L12.3714 1.07152L11.6286 2.92848L21.6286 6.92848L22.3714 5.07152ZM1.62861 18.9285L11.6286 22.9285L12.3714 21.0715L2.37139 17.0715L1.62861 18.9285ZM12.3714 22.9285L22.3714 18.9285L21.6286 17.0715L11.6286 21.0715L12.3714 22.9285ZM1 6V18H3V6H1ZM21 6V18H23V6H21ZM11 10V22H13V10H11ZM1.62861 6.92848L11.6286 10.9285L12.3714 9.07152L2.37139 5.07152L1.62861 6.92848ZM11.6286 1.07152L6.62861 3.07152L7.37139 4.92848L12.3714 2.92848L11.6286 1.07152ZM6.62861 3.07152L1.62861 5.07152L2.37139 6.92848L7.37139 4.92848L6.62861 3.07152ZM12.3714 10.9285L17.3714 8.92848L16.6286 7.07152L11.6286 9.07152L12.3714 10.9285ZM17.3714 8.92848L22.3714 6.92848L21.6286 5.07152L16.6286 7.07152L17.3714 8.92848ZM6.62861 4.92848L16.6286 8.92848L17.3714 7.07152L7.37139 3.07152L6.62861 4.92848ZM18 13V8H16V13H18Z" fill="black"/>
</g>
</svg>
