<svg width="24" height="24" viewBox="0 0 24 24" fill="none" xmlns="http://www.w3.org/2000/svg">
<g id="delivery-package-03">
<path id="icon" d="M12 2L12.4104 1.08808C12.1494 0.970641 11.8506 0.970641 11.5896 1.08808L12 2ZM2 6.5L1.58964 5.58808C1.23078 5.74956 1 6.10649 1 6.5H2ZM22 6.5H23C23 6.10649 22.7692 5.74956 22.4104 5.58808L22 6.5ZM2 17.5H1C1 17.8935 1.23078 18.2504 1.58964 18.4119L2 17.5ZM12 22L11.5896 22.9119C11.8506 23.0294 12.1494 23.0294 12.4104 22.9119L12 22ZM22 17.5L22.4104 18.4119C22.7692 18.2504 23 17.8935 23 17.5H22ZM16 14C16 14.5523 16.4477 15 17 15C17.5523 15 18 14.5523 18 14H16ZM22.4104 5.58808L12.4104 1.08808L11.5896 2.91192L21.5896 7.41192L22.4104 5.58808ZM1.58964 18.4119L11.5896 22.9119L12.4104 21.0881L2.41036 16.5881L1.58964 18.4119ZM12.4104 22.9119L22.4104 18.4119L21.5896 16.5881L11.5896 21.0881L12.4104 22.9119ZM1 6.5V17.5H3V6.5H1ZM21 6.5V17.5H23V6.5H21ZM11 11V22H13V11H11ZM1.58964 7.41192L11.5896 11.9119L12.4104 10.0881L2.41036 5.58808L1.58964 7.41192ZM11.5896 1.08808L6.58964 3.33808L7.41036 5.16192L12.4104 2.91192L11.5896 1.08808ZM6.58964 3.33808L1.58964 5.58808L2.41036 7.41192L7.41036 5.16192L6.58964 3.33808ZM12.4104 11.9119L17.4104 9.66192L16.5896 7.83808L11.5896 10.0881L12.4104 11.9119ZM17.4104 9.66192L22.4104 7.41192L21.5896 5.58808L16.5896 7.83808L17.4104 9.66192ZM6.58964 5.16192L16.5896 9.66192L17.4104 7.83808L7.41036 3.33808L6.58964 5.16192ZM18 14V8.75H16V14H18Z" fill="black"/>
</g>
</svg>
