<svg width="24" height="24" viewBox="0 0 24 24" fill="none" xmlns="http://www.w3.org/2000/svg">
<g id="delivery-truck">
<path id="icon" d="M18.599 7.82366L17.7903 8.41183V8.41183L18.599 7.82366ZM21.6175 11.974L22.4262 11.3859V11.3859L21.6175 11.974ZM16.5 11C15.9477 11 15.5 11.4477 15.5 12C15.5 12.5523 15.9477 13 16.5 13V11ZM21.5 13C22.0523 13 22.5 12.5523 22.5 12C22.5 11.4477 22.0523 11 21.5 11V13ZM4 6H11V4H4V6ZM12 7V17H14V7H12ZM3 15V7H1V15H3ZM6 16H4V18H6V16ZM13 16H10V18H13V16ZM1 15C1 16.6569 2.34315 18 4 18V16C3.44772 16 3 15.5523 3 15H1ZM11 6C11.5523 6 12 6.44772 12 7H14C14 5.34315 12.6569 4 11 4V6ZM4 4C2.34315 4 1 5.34315 1 7H3C3 6.44772 3.44772 6 4 6V4ZM21 13.1504V15H23V13.1504H21ZM13 8H16.9816V6H13V8ZM17.7903 8.41183L20.8087 12.5622L22.4262 11.3859L19.4078 7.23548L17.7903 8.41183ZM16 16H13V18H16V16ZM20 16H19.5V18H20V16ZM16.9816 8C17.3015 8 17.6021 8.15308 17.7903 8.41183L19.4078 7.23549C18.8432 6.45925 17.9414 6 16.9816 6V8ZM23 13.1504C23 12.5163 22.7991 11.8986 22.4262 11.3859L20.8087 12.5622C20.933 12.7331 21 12.939 21 13.1504H23ZM21 15C21 15.5523 20.5523 16 20 16V18C21.6569 18 23 16.6569 23 15H21ZM19 17C19 17.5523 18.5523 18 18 18V20C19.6569 20 21 18.6569 21 17H19ZM18 18C17.4477 18 17 17.5523 17 17H15C15 18.6569 16.3431 20 18 20V18ZM17 17C17 16.4477 17.4477 16 18 16V14C16.3431 14 15 15.3431 15 17H17ZM18 16C18.5523 16 19 16.4477 19 17H21C21 15.3431 19.6569 14 18 14V16ZM9 17C9 17.5523 8.55228 18 8 18V20C9.65685 20 11 18.6569 11 17H9ZM8 18C7.44772 18 7 17.5523 7 17H5C5 18.6569 6.34315 20 8 20V18ZM7 17C7 16.4477 7.44772 16 8 16V14C6.34315 14 5 15.3431 5 17H7ZM8 16C8.55228 16 9 16.4477 9 17H11C11 15.3431 9.65685 14 8 14V16ZM16.5 13H21.5V11L16.5 11V13Z" fill="black"/>
</g>
</svg>
