<svg width="24" height="24" viewBox="0 0 24 24" fill="none" xmlns="http://www.w3.org/2000/svg">
<g id="download">
<path id="icon" d="M22 14C22 13.4477 21.5523 13 21 13C20.4477 13 20 13.4477 20 14H22ZM4 14C4 13.4477 3.55228 13 3 13C2.44772 13 2 13.4477 2 14H4ZM13 3C13 2.44772 12.5523 2 12 2C11.4477 2 11 2.44772 11 3L13 3ZM12 15L11.2929 15.7071C11.6834 16.0976 12.3166 16.0976 12.7071 15.7071L12 15ZM16.7071 11.7071C17.0976 11.3166 17.0976 10.6834 16.7071 10.2929C16.3166 9.90235 15.6834 9.90235 15.2929 10.2929L16.7071 11.7071ZM8.70711 10.2929C8.31658 9.90235 7.68342 9.90235 7.29289 10.2929C6.90237 10.6834 6.90237 11.3166 7.29289 11.7071L8.70711 10.2929ZM20 14V18H22V14H20ZM18 20H6V22H18V20ZM4 18V14H2V18H4ZM6 20C4.89543 20 4 19.1046 4 18H2C2 20.2091 3.79086 22 6 22V20ZM20 18C20 19.1046 19.1046 20 18 20V22C20.2091 22 22 20.2091 22 18H20ZM11 3L11 15H13L13 3L11 3ZM15.2929 10.2929L11.2929 14.2929L12.7071 15.7071L16.7071 11.7071L15.2929 10.2929ZM12.7071 14.2929L8.70711 10.2929L7.29289 11.7071L11.2929 15.7071L12.7071 14.2929Z" fill="black"/>
</g>
</svg>
