<svg width="24" height="24" viewBox="0 0 24 24" fill="none" xmlns="http://www.w3.org/2000/svg">
<g id="eye-off">
<path id="icon" d="M2.24898 11.3827L3.15401 11.808H3.15401L2.24898 11.3827ZM21.8202 11.5351L20.9042 11.9363L20.9042 11.9363L21.8202 11.5351ZM2.24898 12.6173L3.15401 12.192H3.15401L2.24898 12.6173ZM21.8202 12.4649L20.9042 12.0637L20.9042 12.0637L21.8202 12.4649ZM3.70712 2.29289C3.31659 1.90237 2.68343 1.90237 2.2929 2.29289C1.90238 2.68342 1.90238 3.31658 2.2929 3.70711L3.70712 2.29289ZM20.2929 21.7071C20.6834 22.0976 21.3166 22.0976 21.7071 21.7071C22.0976 21.3166 22.0976 20.6834 21.7071 20.2929L20.2929 21.7071ZM3.15401 11.808C3.74572 10.549 5.01629 9.07837 6.65995 7.92036C8.30081 6.76433 10.1993 6 12 6V4C9.6619 4 7.36698 4.97572 5.50806 6.28538C3.65194 7.59307 2.1164 9.31377 1.34395 10.9574L3.15401 11.808ZM12 6C13.8328 6 15.7664 6.79187 17.4253 7.98093C19.0886 9.17308 20.3523 10.6761 20.9042 11.9363L22.7362 11.1338C22.0041 9.46235 20.4634 7.69783 18.5904 6.35537C16.7132 5.00982 14.3787 4 12 4V6ZM12 18C10.1993 18 8.30081 17.2357 6.65995 16.0796C5.01629 14.9216 3.74572 13.451 3.15401 12.192L1.34395 13.0426C2.1164 14.6862 3.65194 16.4069 5.50806 17.7146C7.36698 19.0243 9.6619 20 12 20V18ZM20.9042 12.0637C20.3523 13.3239 19.0886 14.8269 17.4253 16.0191C15.7664 17.2081 13.8328 18 12 18V20C14.3787 20 16.7132 18.9902 18.5904 17.6446C20.4634 16.3022 22.0041 14.5376 22.7362 12.8662L20.9042 12.0637ZM20.9042 11.9363C20.9224 11.9778 20.9224 12.0222 20.9042 12.0637L22.7362 12.8662C22.9784 12.3131 22.9784 11.6869 22.7362 11.1338L20.9042 11.9363ZM1.34395 10.9574C1.03326 11.6184 1.03326 12.3816 1.34395 13.0426L3.15401 12.192C3.09657 12.0697 3.09657 11.9303 3.15401 11.808L1.34395 10.9574ZM12.7071 12.7071C12.3166 13.0976 11.6834 13.0976 11.2929 12.7071L9.87869 14.1213C11.0503 15.2929 12.9498 15.2929 14.1213 14.1213L12.7071 12.7071ZM11.2929 12.7071C10.9024 12.3166 10.9024 11.6834 11.2929 11.2929L9.87869 9.87868C8.70712 11.0503 8.70712 12.9497 9.87869 14.1213L11.2929 12.7071ZM2.2929 3.70711L20.2929 21.7071L21.7071 20.2929L3.70712 2.29289L2.2929 3.70711Z" fill="black"/>
</g>
</svg>
