<svg width="24" height="24" viewBox="0 0 24 24" fill="none" xmlns="http://www.w3.org/2000/svg">
<g id="folder-remove-01">
<path id="icon" d="M10.2764 3.55279L9.38197 4L9.38197 4L10.2764 3.55279ZM11.7236 6.44721L12.618 6V6L11.7236 6.44721ZM7 6C6.44772 6 6 6.44772 6 7C6 7.55228 6.44772 8 7 8V6ZM9 13C8.44772 13 8 13.4477 8 14C8 14.5523 8.44772 15 9 15V13ZM15 15C15.5523 15 16 14.5523 16 14C16 13.4477 15.5523 13 15 13V15ZM3 18V6H1V18H3ZM5 20C3.89543 20 3 19.1046 3 18H1C1 20.2091 2.79086 22 5 22V20ZM5 2C2.79086 2 1 3.79086 1 6H3C3 4.89543 3.89543 4 5 4V2ZM12.618 8H19V6H12.618V8ZM21 10V18H23V10H21ZM21 18C21 19.1046 20.1046 20 19 20V22C21.2091 22 23 20.2091 23 18H21ZM19 8C20.1046 8 21 8.89543 21 10H23C23 7.79086 21.2091 6 19 6V8ZM9.38197 4L10.8292 6.89443L12.618 6L11.1708 3.10557L9.38197 4ZM12.618 6V6L10.8292 6.89443C11.168 7.572 11.8605 8 12.618 8V6ZM11.1708 3.10557C10.832 2.428 10.1395 2 9.38197 2V4L9.38197 4L11.1708 3.10557ZM7 8H12.618V6H7V8ZM19 20H5V22H19V20ZM5 4H9.38197V2H5V4ZM9 15H15V13H9V15Z" fill="black"/>
</g>
</svg>
