<svg width="24" height="24" viewBox="0 0 24 24" fill="none" xmlns="http://www.w3.org/2000/svg">
<g id="gift-02">
<path id="icon" d="M22 14C22.5523 14 23 13.5523 23 13C23 12.4477 22.5523 12 22 12V14ZM11 22C11 22.5523 11.4477 23 12 23C12.5523 23 13 22.5523 13 22H11ZM18.1213 7.12132L18.8284 7.82843L18.8284 7.82843L18.1213 7.12132ZM13.8787 2.87868L13.1716 2.17157V2.17157L13.8787 2.87868ZM4 9H20V7H4V9ZM4 21C3.44772 21 3 20.5523 3 20H1C1 21.6569 2.34315 23 4 23V21ZM20 9C20.5523 9 21 9.44772 21 10H23C23 8.34315 21.6569 7 20 7V9ZM4 7C2.34315 7 1 8.34315 1 10H3C3 9.44772 3.44772 9 4 9V7ZM2 14H12V12H2V14ZM12 14H22V12H12V14ZM11 8V13H13V8H11ZM11 13V22H13V13H11ZM17.4142 3.58579C18.1953 4.36683 18.1953 5.63317 17.4142 6.41421L18.8284 7.82843C20.3905 6.26633 20.3905 3.73367 18.8284 2.17157L17.4142 3.58579ZM14.5858 3.58579C15.3668 2.80474 16.6332 2.80474 17.4142 3.58579L18.8284 2.17157C17.2663 0.609476 14.7337 0.609476 13.1716 2.17157L14.5858 3.58579ZM7.43934 6.56066C6.85355 5.97487 6.85355 5.02513 7.43934 4.43934L6.02513 3.02513C4.65829 4.39196 4.65829 6.60804 6.02513 7.97487L7.43934 6.56066ZM7.43934 4.43934C8.02513 3.85355 8.97487 3.85355 9.56066 4.43934L10.9749 3.02513C9.60804 1.65829 7.39196 1.65829 6.02513 3.02513L7.43934 4.43934ZM17.4142 6.41421C17.0235 6.80493 16.5134 7 16 7V9C17.0221 9 18.0476 8.60928 18.8284 7.82843L17.4142 6.41421ZM8.5 7C8.11457 7 7.73243 6.85375 7.43934 6.56066L6.02513 7.97487C6.70835 8.6581 7.60582 9 8.5 9V7ZM9.56066 4.43934C10.7982 5.67685 11.0227 6.75559 11.0516 7.30604L13.0488 7.20149C12.9955 6.18287 12.5795 4.62975 10.9749 3.02513L9.56066 4.43934ZM11.0516 7.30603C11.0605 7.47641 11.0509 7.60479 11.0416 7.68128C11.037 7.71948 11.0324 7.7445 11.0303 7.75505C11.0293 7.76031 11.0288 7.76191 11.0294 7.7597C11.0296 7.75859 11.0301 7.75652 11.0309 7.75347C11.0313 7.75194 11.0317 7.75017 11.0322 7.74815C11.0325 7.74714 11.0328 7.74607 11.0331 7.74494C11.0332 7.74437 11.0334 7.74379 11.0335 7.74319C11.0336 7.74289 11.0337 7.74259 11.0338 7.74228C11.0338 7.74213 11.0339 7.74189 11.0339 7.74182C11.034 7.74158 11.034 7.74135 12 8C12.966 8.25865 12.966 8.25842 12.9661 8.25818C12.9661 8.2581 12.9662 8.25786 12.9662 8.25769C12.9663 8.25737 12.9664 8.25704 12.9665 8.25671C12.9667 8.25604 12.9668 8.25536 12.967 8.25465C12.9674 8.25325 12.9678 8.25177 12.9682 8.25022C12.969 8.24711 12.9699 8.24372 12.9708 8.24004C12.9726 8.23268 12.9747 8.22416 12.977 8.21452C12.9815 8.19523 12.9867 8.1714 12.9923 8.14322C13.0034 8.08689 13.016 8.01299 13.0269 7.92307C13.0488 7.74329 13.0644 7.49855 13.0488 7.20149L11.0516 7.30603ZM13.1716 2.17157C11.6002 3.74299 11.1788 6.02884 11.0562 7.14448L13.0442 7.36304C13.1569 6.33761 13.523 4.64853 14.5858 3.58579L13.1716 2.17157ZM11.0562 7.14448C11.0286 7.39535 11.0146 7.60238 11.0074 7.74968C11.0039 7.82341 11.002 7.88242 11.001 7.92474C11.0006 7.9459 11.0003 7.96292 11.0002 7.97554C11.0001 7.98185 11 7.98706 11 7.99115C11 7.99319 11 7.99496 11 7.99643C11 7.99717 11 7.99784 11 7.99843C11 7.99873 11 7.99901 11 7.99927C11 7.9994 11 7.99953 11 7.99965C11 7.99971 11 7.9998 11 7.99983C11 7.99992 11 8 12 8C13 8 13 8.00008 13 8.00016C13 8.00019 13 8.00027 13 8.00032C13 8.00043 13 8.00053 13 8.00062C13 8.00081 13 8.00099 13 8.00114C13 8.00146 13 8.0017 13 8.00188C13 8.00223 13 8.00231 13 8.00212C13 8.00174 13 8.00028 13 7.99778C13.0001 7.99276 13.0002 7.98358 13.0005 7.97045C13.0011 7.94417 13.0024 7.90221 13.0051 7.84644C13.0105 7.73474 13.0216 7.56865 13.0442 7.36304L11.0562 7.14448ZM3 20V13H1V20H3ZM3 13V10H1V13H3ZM20 23C21.6569 23 23 21.6569 23 20H21C21 20.5523 20.5523 21 20 21V23ZM21 10V20H23V10H21ZM20 21H4V23H20V21Z" fill="black"/>
</g>
</svg>
