<svg width="24" height="24" viewBox="0 0 24 24" fill="none" xmlns="http://www.w3.org/2000/svg">
<g id="help-circle">
<path id="icon" d="M9 9C10 6 14.92 6 14.92 9.5C14.92 10.6987 14.2486 11.3227 13.5498 11.6475C12.7983 11.9967 12.4226 12.1713 12.2998 12.2917C12.149 12.4396 12.1281 12.4724 12.0575 12.6714C12 12.8336 12 13.0891 12 13.6V14M12 17H12.01M22 12C22 17.5228 17.5228 22 12 22C6.47715 22 2 17.5228 2 12C2 6.47715 6.47715 2 12 2C17.5228 2 22 6.47715 22 12Z" stroke="black" stroke-width="2" stroke-linecap="round" stroke-linejoin="round"/>
</g>
</svg>
