<svg width="24" height="24" viewBox="0 0 24 24" fill="none" xmlns="http://www.w3.org/2000/svg">
<g id="image-01">
<path id="icon" d="M8.5 12L9.3 11.4C9.10404 11.1387 8.79285 10.9896 8.46644 11.0006C8.14003 11.0115 7.83954 11.1812 7.66156 11.455L8.5 12ZM2 22L1.16156 21.455C0.961704 21.7625 0.946172 22.1547 1.12108 22.477C1.296 22.7993 1.63329 23 2 23V22ZM16.5 14L17.324 13.4335C17.1491 13.179 16.8665 13.0197 16.5582 13.0017C16.25 12.9837 15.9507 13.1091 15.7474 13.3415L16.5 14ZM22 22V23C22.3714 23 22.7121 22.7942 22.885 22.4655C23.0579 22.1369 23.0344 21.7395 22.824 21.4335L22 22ZM7.7 12.6L15.2 22.6L16.8 21.4L9.3 11.4L7.7 12.6ZM16 21H2V23H16V21ZM2.83844 22.545L9.33844 12.545L7.66156 11.455L1.16156 21.455L2.83844 22.545ZM15.676 14.5665L21.176 22.5665L22.824 21.4335L17.324 13.4335L15.676 14.5665ZM13.7526 18.6585L17.2526 14.6585L15.7474 13.3415L12.2474 17.3415L13.7526 18.6585ZM22 21H16V23H22V21ZM21 5.5C21 6.88071 19.8807 8 18.5 8V10C20.9853 10 23 7.98528 23 5.5H21ZM18.5 8C17.1193 8 16 6.88071 16 5.5H14C14 7.98528 16.0147 10 18.5 10V8ZM16 5.5C16 4.11929 17.1193 3 18.5 3V1C16.0147 1 14 3.01472 14 5.5H16ZM18.5 3C19.8807 3 21 4.11929 21 5.5H23C23 3.01472 20.9853 1 18.5 1V3Z" fill="black"/>
</g>
</svg>
