<svg width="24" height="24" viewBox="0 0 24 24" fill="none" xmlns="http://www.w3.org/2000/svg">
<g id="image-02">
<path id="icon" d="M8.5 11L9.2071 10.2929C9.01424 10.1 8.75096 9.99429 8.47827 10.0002C8.20558 10.0061 7.94715 10.1232 7.76284 10.3242L8.5 11ZM18.5 21L18.5 22C18.9045 22 19.2691 21.7564 19.4239 21.3827C19.5787 21.009 19.4931 20.5789 19.2071 20.2929L18.5 21ZM3 17L2.26284 16.3242C2.09378 16.5087 1.99999 16.7498 2 17L3 17ZM5.00001 21L5 22L5.00001 21ZM3.00001 19L2.00001 19L3.00001 19ZM19 21L19 22H19V21ZM3 5H2V5L3 5ZM7.79289 11.7071L17.7929 21.7071L19.2071 20.2929L9.2071 10.2929L7.79289 11.7071ZM3.73715 17.6757L9.23715 11.6757L7.76284 10.3242L2.26284 16.3242L3.73715 17.6757ZM18.5 20L5.00001 20L5 22L18.5 22L18.5 20ZM4.00001 19L4 17L2 17L2.00001 19L4.00001 19ZM5.00001 20C4.44772 20 4.00001 19.5523 4.00001 19L2.00001 19C2.00002 20.6568 3.34316 22 5 22L5.00001 20ZM17 8.5C17 9.32843 16.3284 10 15.5 10V12C17.433 12 19 10.433 19 8.5H17ZM15.5 10C14.6716 10 14 9.32843 14 8.5H12C12 10.433 13.567 12 15.5 12V10ZM14 8.5C14 7.67157 14.6716 7 15.5 7V5C13.567 5 12 6.567 12 8.5H14ZM15.5 7C16.3284 7 17 7.67157 17 8.5H19C19 6.567 17.433 5 15.5 5V7ZM5 4H19V2H5V4ZM20 5V19H22V5H20ZM19 20L5.00001 20L5 22L19 22L19 20ZM4.00001 19L4 5L2 5L2.00001 19L4.00001 19ZM20 19C20 19.5523 19.5523 20 19 20V22C20.6569 22 22 20.6569 22 19H20ZM19 4C19.5523 4 20 4.44772 20 5H22C22 3.34315 20.6569 2 19 2V4ZM5 2C3.34315 2 2 3.34315 2 5H4C4 4.44772 4.44772 4 5 4V2Z" fill="black"/>
</g>
</svg>
