<svg width="24" height="24" viewBox="0 0 24 24" fill="none" xmlns="http://www.w3.org/2000/svg">
<g id="image-03">
<path id="icon" d="M12 13L12.7071 12.2929C12.5196 12.1054 12.2652 12 12 12C11.7348 12 11.4804 12.1054 11.2929 12.2929L12 13ZM6.12308 11L6.92291 10.3998C6.73888 10.1545 6.45251 10.0073 6.14597 10.0003C5.83944 9.99324 5.54663 10.1272 5.35156 10.3638L6.12308 11ZM2 16L1.22848 15.3638C1.08078 15.5429 1 15.7678 1 16H2ZM4 4H20V2H4V4ZM21 5V19H23V5H21ZM20 20H4V22H20V20ZM3 19V5H1V19H3ZM4 20C3.44772 20 3 19.5523 3 19H1C1 20.6569 2.34315 22 4 22V20ZM21 19C21 19.5523 20.5523 20 20 20V22C21.6569 22 23 20.6569 23 19H21ZM20 4C20.5523 4 21 4.44772 21 5H23C23 3.34315 21.6569 2 20 2V4ZM4 2C2.34315 2 1 3.34315 1 5H3C3 4.44772 3.44772 4 4 4V2ZM17 9C17 9.55228 16.5523 10 16 10V12C17.6569 12 19 10.6569 19 9H17ZM16 10C15.4477 10 15 9.55228 15 9H13C13 10.6569 14.3431 12 16 12V10ZM15 9C15 8.44772 15.4477 8 16 8V6C14.3431 6 13 7.34315 13 9H15ZM16 8C16.5523 8 17 8.44772 17 9H19C19 7.34315 17.6569 6 16 6V8ZM11.2929 12.2929L3.29289 20.2929L4.70711 21.7071L12.7071 13.7071L11.2929 12.2929ZM20.7071 20.2929L12.7071 12.2929L11.2929 13.7071L19.2929 21.7071L20.7071 20.2929ZM10.2998 14.8998L6.92291 10.3998L5.32324 11.6002L8.70016 16.1002L10.2998 14.8998ZM4 22H5V20H4V22ZM5.35156 10.3638L1.22848 15.3638L2.77152 16.6362L6.8946 11.6362L5.35156 10.3638ZM1 16V19H3V16H1Z" fill="black"/>
</g>
</svg>
