<svg width="24" height="24" viewBox="0 0 24 24" fill="none" xmlns="http://www.w3.org/2000/svg">
<g id="layout--feed">
<path id="icon" d="M4 16C3.44772 16 3 16.4477 3 17C3 17.5523 3.44772 18 4 18V16ZM20 18C20.5523 18 21 17.5523 21 17C21 16.4477 20.5523 16 20 16V18ZM4 20C3.44772 20 3 20.4477 3 21C3 21.5523 3.44772 22 4 22V20ZM12 22C12.5523 22 13 21.5523 13 21C13 20.4477 12.5523 20 12 20V22ZM4 18H20V16H4V18ZM4 22H12V20H4V22ZM5 4H19V2H5V4ZM20 5V11H22V5H20ZM19 12H5V14H19V12ZM4 11V5H2V11H4ZM5 12C4.44772 12 4 11.5523 4 11H2C2 12.6569 3.34315 14 5 14V12ZM20 11C20 11.5523 19.5523 12 19 12V14C20.6569 14 22 12.6569 22 11H20ZM19 4C19.5523 4 20 4.44772 20 5H22C22 3.34315 20.6569 2 19 2V4ZM5 2C3.34315 2 2 3.34315 2 5H4C4 4.44772 4.44772 4 5 4V2Z" fill="black"/>
</g>
</svg>
