<svg width="24" height="24" viewBox="0 0 24 24" fill="none" xmlns="http://www.w3.org/2000/svg">
<g id="lightbulb-02">
<path id="icon" d="M20.25 10C19.6977 10 19.25 10.4477 19.25 11C19.25 11.5523 19.6977 12 20.25 12V10ZM21 12C21.5523 12 22 11.5523 22 11C22 10.4477 21.5523 10 21 10V12ZM3 10C2.44772 10 2 10.4477 2 11C2 11.5523 2.44772 12 3 12V10ZM3.75 12C4.30228 12 4.75 11.5523 4.75 11C4.75 10.4477 4.30228 10 3.75 10V12ZM5.81694 4.02773C5.42642 3.6372 4.79325 3.6372 4.40273 4.02773C4.0122 4.41825 4.0122 5.05142 4.40273 5.44194L5.81694 4.02773ZM4.93306 5.97227C5.32358 6.3628 5.95675 6.3628 6.34727 5.97227C6.73779 5.58175 6.73779 4.94858 6.34727 4.55806L4.93306 5.97227ZM17.4027 4.55806C17.0122 4.94858 17.0122 5.58175 17.4027 5.97227C17.7933 6.3628 18.4264 6.3628 18.8169 5.97227L17.4027 4.55806ZM19.3473 5.44194C19.7378 5.05142 19.7378 4.41825 19.3473 4.02773C18.9567 3.6372 18.3236 3.6372 17.9331 4.02773L19.3473 5.44194ZM11 2.75C11 3.30228 11.4477 3.75 12 3.75C12.5523 3.75 13 3.30228 13 2.75H11ZM13 2C13 1.44772 12.5523 1 12 1C11.4477 1 11 1.44772 11 2H13ZM8.44887 14.3908L7.74405 15.1002L7.74405 15.1002L8.44887 14.3908ZM15.5511 14.3908L14.8463 13.6814L14.8463 13.6814L15.5511 14.3908ZM9.40988 15.7435L8.46262 16.0639L9.40988 15.7435ZM14.5901 15.7435L13.6429 15.423V15.423L14.5901 15.7435ZM14 22C14.5523 22 15 21.5523 15 21C15 20.4477 14.5523 20 14 20V22ZM10 20C9.44771 20 9 20.4477 9 21C9 21.5523 9.44771 22 10 22V20ZM20.25 12H21V10H20.25V12ZM3 12H3.75V10H3V12ZM4.40273 5.44194L4.93306 5.97227L6.34727 4.55806L5.81694 4.02773L4.40273 5.44194ZM18.8169 5.97227L19.3473 5.44194L17.9331 4.02773L17.4027 4.55806L18.8169 5.97227ZM13 2.75V2H11V2.75H13ZM8 10.9242C8 8.77128 9.77641 7 12 7V5C8.70074 5 6 7.63803 6 10.9242H8ZM12 7C14.2236 7 16 8.77128 16 10.9242H18C18 7.63803 15.2993 5 12 5V7ZM12.7143 17H11.2857V19H12.7143V17ZM9.15368 13.6814C8.43759 12.9699 8 11.9969 8 10.9242H6C6 12.5555 6.66884 14.0319 7.74405 15.1002L9.15368 13.6814ZM16 10.9242C16 11.9969 15.5624 12.9699 14.8463 13.6814L16.2559 15.1002C17.3312 14.0319 18 12.5555 18 10.9242H16ZM11.2857 17C11.1639 17 11.058 16.9715 10.8915 16.7159C10.6925 16.4107 10.5469 15.984 10.3571 15.423L8.46262 16.0639C8.62491 16.5437 8.8491 17.2452 9.21596 17.8081C9.61525 18.4206 10.2712 19 11.2857 19V17ZM13.6429 15.423C13.4531 15.984 13.3075 16.4107 13.1085 16.7159C12.942 16.9715 12.8361 17 12.7143 17V19C13.7288 19 14.3848 18.4206 14.784 17.8081C15.1509 17.2452 15.3751 16.5437 15.5374 16.0639L13.6429 15.423ZM14 20H10V22H14V20ZM14.8463 13.6814C14.4212 14.1038 13.9212 14.6003 13.6429 15.423L15.5374 16.0639C15.6503 15.7303 15.8303 15.5231 16.2559 15.1002L14.8463 13.6814ZM7.74405 15.1002C8.16973 15.5231 8.34973 15.7303 8.46262 16.0639L10.3571 15.423C10.0788 14.6003 9.57882 14.1038 9.15368 13.6814L7.74405 15.1002Z" fill="black"/>
</g>
</svg>
