<svg width="24" height="24" viewBox="0 0 24 24" fill="none" xmlns="http://www.w3.org/2000/svg">
<g id="lightbulb-01">
<path id="icon" d="M12.01 17C12.5623 17 13.01 16.5523 13.01 16C13.01 15.4477 12.5623 15 12.01 15V17ZM12 15C11.4477 15 11 15.4477 11 16C11 16.5523 11.4477 17 12 17V15ZM14 23C14.5523 23 15 22.5523 15 22C15 21.4477 14.5523 21 14 21V23ZM10 21C9.44772 21 9 21.4477 9 22C9 22.5523 9.44772 23 10 23V21ZM6.97614 13.8745L7.69377 13.1781L7.69377 13.1781L6.97614 13.8745ZM17.0239 13.8745L16.3062 13.1781L16.3062 13.1781L17.0239 13.8745ZM8.39854 15.917L7.45074 16.2359L7.45074 16.2359L8.39854 15.917ZM8.397 15.9124L9.3448 15.5936L9.3448 15.5936L8.397 15.9124ZM15.603 15.9124L14.6552 15.5936L14.6552 15.5937L15.603 15.9124ZM15.6015 15.917L16.5493 16.2359L16.5493 16.2357L15.6015 15.917ZM12.01 15H12V17H12.01V15ZM14 21H10V23H14V21ZM6 9C6 5.68629 8.68629 3 12 3V1C7.58172 1 4 4.58172 4 9H6ZM12 3C15.3137 3 18 5.68629 18 9H20C20 4.58172 16.4183 1 12 1V3ZM13 18H11V20H13V18ZM7.69377 13.1781C6.64442 12.0968 6 10.6247 6 9H4C4 11.1654 4.86161 13.1315 6.25851 14.5709L7.69377 13.1781ZM18 9C18 10.6247 17.3556 12.0968 16.3062 13.1781L17.7415 14.5709C19.1384 13.1315 20 11.1654 20 9H18ZM11 18C10.6528 18 10.3993 17.8536 10.1267 17.4455C9.82088 16.9875 9.60067 16.3541 9.34634 15.5981L7.45074 16.2359C7.68299 16.9262 7.98137 17.8343 8.46354 18.5563C8.97902 19.3281 9.78293 20 11 20V18ZM9.34634 15.5981L9.3448 15.5936L7.44919 16.2313L7.45074 16.2359L9.34634 15.5981ZM14.6552 15.5937L14.6536 15.5983L16.5493 16.2357L16.5509 16.2311L14.6552 15.5937ZM14.6537 15.5981C14.3993 16.3541 14.1791 16.9875 13.8733 17.4455C13.6007 17.8536 13.3472 18 13 18V20C14.2171 20 15.021 19.3281 15.5365 18.5563C16.0186 17.8343 16.317 16.9262 16.5493 16.2359L14.6537 15.5981ZM16.3062 13.1781C15.6894 13.8137 15.0257 14.4923 14.6552 15.5936L16.5508 16.2313C16.7603 15.6087 17.1115 15.2202 17.7415 14.5709L16.3062 13.1781ZM6.25851 14.5709C6.88854 15.2202 7.23974 15.6087 7.4492 16.2313L9.3448 15.5936C8.97433 14.4923 8.31056 13.8137 7.69377 13.1781L6.25851 14.5709Z" fill="black"/>
</g>
</svg>
