<svg width="24" height="24" viewBox="0 0 24 24" fill="none" xmlns="http://www.w3.org/2000/svg">
<g id="location-pin">
<path id="icon" d="M12 22L11.2929 22.7071C11.6834 23.0976 12.3166 23.0976 12.7071 22.7071L12 22ZM4 10H3H4ZM7.05025 5.05025C9.78392 2.31658 14.2161 2.31658 16.9497 5.05025L18.364 3.63604C14.8492 0.121319 9.15076 0.121321 5.63604 3.63604L7.05025 5.05025ZM5 10C5 8.25528 5.72448 6.37603 7.05025 5.05025L5.63604 3.63604C3.92139 5.35069 3 7.7447 3 10H5ZM16.9497 5.05025C18.2755 6.37602 19 8.25528 19 10H21C21 7.7447 20.0786 5.35069 18.364 3.63604L16.9497 5.05025ZM19 10C19 12.1608 17.9179 14.1884 16.3489 16.1194C14.7666 18.0668 12.8589 19.7268 11.2929 21.2929L12.7071 22.7071C14.1411 21.2731 16.2334 19.4332 17.9011 17.3806C19.5821 15.3116 21 12.8392 21 10H19ZM12.7071 21.2929C11.1411 19.7268 9.23338 18.0668 7.65111 16.1194C6.08213 14.1884 5 12.1608 5 10H3C3 12.8393 4.41787 15.3116 6.09889 17.3806C7.76662 19.4332 9.85893 21.2731 11.2929 22.7071L12.7071 21.2929ZM14 10C14 11.1046 13.1046 12 12 12V14C14.2091 14 16 12.2091 16 10H14ZM12 12C10.8954 12 10 11.1046 10 10H8C8 12.2091 9.79086 14 12 14V12ZM10 10C10 8.89544 10.8954 8 12 8V6C9.79086 6 8 7.79087 8 10H10ZM12 8C13.1046 8 14 8.89544 14 10H16C16 7.79087 14.2091 6 12 6V8Z" fill="black"/>
</g>
</svg>
