<svg width="24" height="24" viewBox="0 0 24 24" fill="none" xmlns="http://www.w3.org/2000/svg">
<g id="location-globe">
<path id="icon" d="M11.8394 2.59292C12.1396 2.12934 12.0071 1.51018 11.5435 1.20999C11.08 0.909803 10.4608 1.04225 10.1606 1.50583L11.8394 2.59292ZM10.1606 22.4942C10.4608 22.9577 11.08 23.0902 11.5435 22.79C12.0071 22.4898 12.1396 21.8707 11.8394 21.4071L10.1606 22.4942ZM13.8394 1.50583C13.5392 1.04225 12.92 0.909803 12.4565 1.20999C11.9929 1.51018 11.8604 2.12934 12.1606 2.59292L13.8394 1.50583ZM12.1606 21.4071C11.8604 21.8707 11.9929 22.4898 12.4565 22.79C12.92 23.0902 13.5392 22.9577 13.8394 22.4942L12.1606 21.4071ZM21 12C21 16.9706 16.9706 21 12 21V23C18.0751 23 23 18.0751 23 12H21ZM12 21C7.02944 21 3 16.9706 3 12H1C1 18.0751 5.92487 23 12 23V21ZM3 12C3 7.02944 7.02944 3 12 3V1C5.92487 1 1 5.92487 1 12H3ZM12 3C16.9706 3 21 7.02944 21 12H23C23 5.92487 18.0751 1 12 1V3ZM10.1606 1.50583C8.155 4.60306 7 8.1541 7 12H9C9 8.56925 10.0269 5.39193 11.8394 2.59292L10.1606 1.50583ZM7 12C7 15.8459 8.155 19.3969 10.1606 22.4942L11.8394 21.4071C10.0269 18.6081 9 15.4307 9 12H7ZM12.1606 2.59292C13.9731 5.39193 15 8.56925 15 12H17C17 8.1541 15.845 4.60306 13.8394 1.50583L12.1606 2.59292ZM15 12C15 15.4308 13.9731 18.6081 12.1606 21.4071L13.8394 22.4942C15.845 19.3969 17 15.8459 17 12H15ZM2 13H22V11H2V13Z" fill="black"/>
</g>
</svg>
