<svg width="24" height="24" viewBox="0 0 24 24" fill="none" xmlns="http://www.w3.org/2000/svg">
<g id="location-map">
<path id="icon" d="M17 5C16.4477 5 16 5.44772 16 6C16 6.55228 16.4477 7 17 7V5ZM18 7C18.5523 7 19 6.55228 19 6C19 5.44772 18.5523 5 18 5V7ZM21 5V19H23V5H21ZM5 21C3.89543 21 3 20.1046 3 19H1C1 21.2091 2.79086 23 5 23V21ZM21 19C21 20.1046 20.1046 21 19 21V23C21.2091 23 23 21.2091 23 19H21ZM19 3C20.1046 3 21 3.89543 21 5H23C23 2.79086 21.2091 1 19 1V3ZM5 1C2.79086 1 1 2.79086 1 5H3C3 3.89543 3.89543 3 5 3V1ZM5 3H8.5V1H5V3ZM8.5 3H19V1H8.5V3ZM19 21H15.5V23H19V21ZM15.5 21H5V23H15.5V21ZM3 19V15.5H1V19H3ZM3 15.5V5H1V15.5H3ZM16.4439 21.6696L12.9439 11.6696L11.0561 12.3304L14.5561 22.3304L16.4439 21.6696ZM12.9439 11.6696L9.44386 1.66965L7.55614 2.33035L11.0561 12.3304L12.9439 11.6696ZM2.33035 16.4439L12.3304 12.9439L11.6696 11.0561L1.66965 14.5561L2.33035 16.4439ZM17 7H18V5H17V7Z" fill="black"/>
</g>
</svg>
