<svg width="24" height="24" viewBox="0 0 24 24" fill="none" xmlns="http://www.w3.org/2000/svg">
<g id="login">
<path id="icon" d="M3.00002 11C2.44773 11 2.00002 11.4477 2.00002 12C2.00002 12.5523 2.44773 13 3.00002 13V11ZM16 12L16.7071 12.7071C17.0976 12.3166 17.0976 11.6834 16.7071 11.2929L16 12ZM12.7071 7.29289C12.3166 6.90237 11.6834 6.90237 11.2929 7.29289C10.9024 7.68342 10.9024 8.31658 11.2929 8.70711L12.7071 7.29289ZM11.2929 15.2929C10.9024 15.6834 10.9024 16.3166 11.2929 16.7071C11.6834 17.0976 12.3166 17.0976 12.7071 16.7071L11.2929 15.2929ZM10 3V2V3ZM18 3V4V3ZM21 6H20H21ZM21 18H22H21ZM18 21V20V21ZM10 21V22V21ZM7 6H6H7ZM7 18H8H7ZM8 17C8 16.4477 7.55228 16 7 16C6.44771 16 6 16.4477 6 17H8ZM6 7C6 7.55228 6.44771 8 7 8C7.55228 8 8 7.55228 8 7H6ZM3.00002 13H16V11H3.00002V13ZM11.2929 8.70711L15.2929 12.7071L16.7071 11.2929L12.7071 7.29289L11.2929 8.70711ZM15.2929 11.2929L11.2929 15.2929L12.7071 16.7071L16.7071 12.7071L15.2929 11.2929ZM10 4L18 4V2L10 2V4ZM20 6V18H22V6H20ZM18 20H10V22H18V20ZM20 18C20 19.1046 19.1046 20 18 20V22C20.2091 22 22 20.2091 22 18H20ZM18 4C19.1046 4 20 4.89543 20 6H22C22 3.79086 20.2091 2 18 2V4ZM8 6C8 4.89543 8.89543 4 10 4V2C7.79086 2 6 3.79086 6 6H8ZM6 18C6 20.2091 7.79086 22 10 22V20C8.89543 20 8 19.1046 8 18H6ZM8 18V17H6V18H8ZM8 7V6H6V7H8Z" fill="black"/>
</g>
</svg>
