<svg width="24" height="24" viewBox="0 0 24 24" fill="none" xmlns="http://www.w3.org/2000/svg">
<g id="logout">
<path id="icon" d="M21 13C21.5523 13 22 12.5523 22 12C22 11.4477 21.5523 11 21 11V13ZM8.00002 12L7.29291 11.2929C6.90238 11.6834 6.90238 12.3166 7.29291 12.7071L8.00002 12ZM11.2929 16.7071C11.6834 17.0976 12.3166 17.0976 12.7071 16.7071C13.0976 16.3166 13.0976 15.6834 12.7071 15.2929L11.2929 16.7071ZM12.7071 8.70711C13.0976 8.31658 13.0976 7.68342 12.7071 7.29289C12.3166 6.90237 11.6834 6.90237 11.2929 7.29289L12.7071 8.70711ZM14 21V20V21ZM6.00002 21V22V21ZM3.00002 18H4.00002H3.00002ZM3.00002 6H2.00002H3.00002ZM6.00002 3V2V3ZM14 3V4V3ZM17 18L16 18V18H17ZM17 6H16H17ZM16 7C16 7.55229 16.4477 8 17 8C17.5523 8 18 7.55229 18 7H16ZM18 17C18 16.4477 17.5523 16 17 16C16.4477 16 16 16.4477 16 17L18 17ZM21 11L8.00002 11V13L21 13V11ZM12.7071 15.2929L8.70712 11.2929L7.29291 12.7071L11.2929 16.7071L12.7071 15.2929ZM8.70712 12.7071L12.7071 8.70711L11.2929 7.29289L7.29291 11.2929L8.70712 12.7071ZM14 20H6.00002V22H14V20ZM4.00002 18L4.00002 6H2.00002L2.00002 18H4.00002ZM6.00002 4L14 4V2L6.00002 2V4ZM4.00002 6C4.00002 4.89543 4.89545 4 6.00002 4V2C3.79088 2 2.00002 3.79086 2.00002 6H4.00002ZM6.00002 20C4.89545 20 4.00002 19.1046 4.00002 18H2.00002C2.00002 20.2091 3.79088 22 6.00002 22V20ZM16 18C16 19.1046 15.1046 20 14 20V22C16.2092 22 18 20.2091 18 18H16ZM18 6C18 3.79086 16.2092 2 14 2V4C15.1046 4 16 4.89543 16 6H18ZM16 6V7H18V6H16ZM16 17L16 18L18 18L18 17L16 17Z" fill="black"/>
</g>
</svg>
