<svg width="24" height="24" viewBox="0 0 24 24" fill="none" xmlns="http://www.w3.org/2000/svg">
<g id="mail-01">
<path id="icon" d="M22 7V17C22 17.3506 21.9398 17.6872 21.8293 18M22 7C22 5.34315 20.6569 4 19 4H5C3.34315 4 2 5.34315 2 7M22 7L14 12.6M2 7V17C2 17.3506 2.06015 17.6872 2.17071 18M2 7L10 12.6M2.17071 18C2.58254 19.1652 3.69378 20 5 20H19C20.3062 20 21.4175 19.1652 21.8293 18M2.17071 18L10 12.6M10 12.6L11.4265 13.5986C11.7709 13.8396 12.2291 13.8396 12.5735 13.5986L14 12.6M21.8293 18L14 12.6" stroke="black" stroke-width="2"/>
</g>
</svg>
