<svg width="24" height="24" viewBox="0 0 24 24" fill="none" xmlns="http://www.w3.org/2000/svg">
<g id="maximize-01">
<path id="icon" d="M14.2929 8.29289C13.9024 8.68342 13.9024 9.31658 14.2929 9.70711C14.6834 10.0976 15.3166 10.0976 15.7071 9.70711L14.2929 8.29289ZM21 3H22C22 2.44772 21.5523 2 21 2V3ZM15 2C14.4477 2 14 2.44772 14 3C14 3.55228 14.4477 4 15 4V2ZM20 9C20 9.55228 20.4477 10 21 10C21.5523 10 22 9.55228 22 9H20ZM9.70711 15.7071C10.0976 15.3166 10.0976 14.6834 9.70711 14.2929C9.31658 13.9024 8.68342 13.9024 8.29289 14.2929L9.70711 15.7071ZM3 21H2C2 21.5523 2.44772 22 3 22V21ZM9 22C9.55228 22 10 21.5523 10 21C10 20.4477 9.55228 20 9 20V22ZM4 15C4 14.4477 3.55228 14 3 14C2.44772 14 2 14.4477 2 15H4ZM15.7071 9.70711L21.7071 3.70711L20.2929 2.29289L14.2929 8.29289L15.7071 9.70711ZM15 4H21V2H15V4ZM20 3V9H22V3H20ZM8.29289 14.2929L2.29289 20.2929L3.70711 21.7071L9.70711 15.7071L8.29289 14.2929ZM9 20H3V22H9V20ZM4 21V15H2V21H4Z" fill="black"/>
</g>
</svg>
