<svg width="24" height="24" viewBox="0 0 24 24" fill="none" xmlns="http://www.w3.org/2000/svg">
<g id="message-text-01">
<path id="icon" d="M8 19V18C7.84475 18 7.69164 18.0361 7.55279 18.1056L8 19ZM3.5 16.9687L4.45832 17.2544C4.55689 16.9238 4.47806 16.5657 4.24974 16.307L3.5 16.9687ZM2 22L1.04168 21.7143C0.927787 22.0963 1.05167 22.5095 1.35697 22.7658C1.66227 23.0222 2.09066 23.0727 2.44721 22.8944L2 22ZM12 15C12.5523 15 13 14.5523 13 14C13 13.4477 12.5523 13 12 13V15ZM8 13C7.44772 13 7 13.4477 7 14C7 14.5523 7.44772 15 8 15V13ZM8.01 9C7.45772 9 7.01 9.44772 7.01 10C7.01 10.5523 7.45772 11 8.01 11V9ZM16 11C16.5523 11 17 10.5523 17 10C17 9.44772 16.5523 9 16 9V11ZM10 6H15V4H10V6ZM15 18H8V20H15V18ZM21 12C21 15.3137 18.3137 18 15 18V20C19.4183 20 23 16.4183 23 12H21ZM15 6C18.4477 6 21 8.55228 21 12H23C23 7.44772 19.5523 4 15 4V6ZM10 4C7.60449 4 5.36545 4.69952 3.7057 6.07265C2.02682 7.46161 1 9.49484 1 12H3C3 10.0869 3.76404 8.62011 4.98059 7.61364C6.21627 6.59135 7.97723 6 10 6V4ZM4.24974 16.307C3.93175 15.9467 3.6069 15.2576 3.36267 14.388C3.12494 13.5415 3 12.6553 3 12H1C1 12.8664 1.15829 13.9357 1.43717 14.9287C1.70956 15.8987 2.1347 16.933 2.75026 17.6305L4.24974 16.307ZM2.54168 16.683L1.04168 21.7143L2.95832 22.2857L4.45832 17.2544L2.54168 16.683ZM2.44721 22.8944L8.44721 19.8944L7.55279 18.1056L1.55279 21.1056L2.44721 22.8944ZM12 13H8V15H12V13ZM8.01 11H16V9H8.01V11Z" fill="black"/>
</g>
</svg>
