<svg width="24" height="24" viewBox="0 0 24 24" fill="none" xmlns="http://www.w3.org/2000/svg">
<g id="message-dots-02">
<path id="icon" d="M3.93552 16L4.91846 16.1839C4.95842 15.9703 4.92773 15.7495 4.83103 15.555L3.93552 16ZM3 21L2.01706 20.8161C1.95638 21.1404 2.05958 21.4738 2.29289 21.7071C2.52621 21.9404 2.85959 22.0436 3.18391 21.9829L3 21ZM8 20.0645L8.44503 19.169C8.25045 19.0723 8.02967 19.0416 7.81609 19.0815L8 20.0645ZM16.01 13C16.5623 13 17.01 12.5523 17.01 12C17.01 11.4477 16.5623 11 16.01 11V13ZM16 11C15.4477 11 15 11.4477 15 12C15 12.5523 15.4477 13 16 13V11ZM12.01 13C12.5623 13 13.01 12.5523 13.01 12C13.01 11.4477 12.5623 11 12.01 11V13ZM12 11C11.4477 11 11 11.4477 11 12C11 12.5523 11.4477 13 12 13V11ZM8.01 13C8.56228 13 9.01 12.5523 9.01 12C9.01 11.4477 8.56228 11 8.01 11V13ZM8 11C7.44772 11 7 11.4477 7 12C7 12.5523 7.44772 13 8 13V11ZM2.95258 15.8161L2.01706 20.8161L3.98294 21.1839L4.91846 16.1839L2.95258 15.8161ZM3.18391 21.9829L8.18391 21.0474L7.81609 19.0815L2.81609 20.0171L3.18391 21.9829ZM20 12C20 16.4183 16.4183 20 12 20V22C17.5228 22 22 17.5228 22 12H20ZM4 12C4 7.58172 7.58172 4 12 4V2C6.47715 2 2 6.47715 2 12H4ZM12 4C16.4183 4 20 7.58172 20 12H22C22 6.47715 17.5228 2 12 2V4ZM4.83103 15.555C4.2994 14.4852 4 13.279 4 12H2C2 13.5947 2.37401 15.1049 3.04001 16.445L4.83103 15.555ZM12 20C10.721 20 9.5148 19.7006 8.44503 19.169L7.55497 20.96C8.89511 21.626 10.4053 22 12 22V20ZM16.01 11H16V13H16.01V11ZM12.01 11H12V13H12.01V11ZM8.01 11H8V13H8.01V11Z" fill="black"/>
</g>
</svg>
