<svg width="24" height="24" viewBox="0 0 24 24" fill="none" xmlns="http://www.w3.org/2000/svg">
<g id="message-dots-01">
<path id="icon" d="M8 19V18C7.84475 18 7.69164 18.0361 7.55279 18.1056L8 19ZM3.5 16.9687L4.45832 17.2544C4.55689 16.9238 4.47806 16.5657 4.24974 16.307L3.5 16.9687ZM2 22L1.04168 21.7143C0.927787 22.0963 1.05167 22.5095 1.35697 22.7658C1.66227 23.0222 2.09066 23.0727 2.44721 22.8944L2 22ZM16.01 13C16.5623 13 17.01 12.5523 17.01 12C17.01 11.4477 16.5623 11 16.01 11V13ZM16 11C15.4477 11 15 11.4477 15 12C15 12.5523 15.4477 13 16 13V11ZM12.01 13C12.5623 13 13.01 12.5523 13.01 12C13.01 11.4477 12.5623 11 12.01 11V13ZM12 11C11.4477 11 11 11.4477 11 12C11 12.5523 11.4477 13 12 13V11ZM8.01 13C8.56228 13 9.01 12.5523 9.01 12C9.01 11.4477 8.56228 11 8.01 11V13ZM8 11C7.44772 11 7 11.4477 7 12C7 12.5523 7.44772 13 8 13V11ZM10 6H15V4H10V6ZM15 18H8V20H15V18ZM21 12C21 15.3137 18.3137 18 15 18V20C19.4183 20 23 16.4183 23 12H21ZM15 6C18.4477 6 21 8.55228 21 12H23C23 7.44772 19.5523 4 15 4V6ZM10 4C7.60449 4 5.36545 4.69952 3.7057 6.07265C2.02682 7.46161 1 9.49484 1 12H3C3 10.0869 3.76404 8.62011 4.98059 7.61364C6.21627 6.59135 7.97723 6 10 6V4ZM4.24974 16.307C3.93175 15.9467 3.6069 15.2576 3.36267 14.388C3.12494 13.5415 3 12.6553 3 12H1C1 12.8664 1.15829 13.9357 1.43717 14.9287C1.70956 15.8987 2.1347 16.933 2.75026 17.6305L4.24974 16.307ZM2.54168 16.683L1.04168 21.7143L2.95832 22.2857L4.45832 17.2544L2.54168 16.683ZM2.44721 22.8944L8.44721 19.8944L7.55279 18.1056L1.55279 21.1056L2.44721 22.8944ZM16.01 11H16V13H16.01V11ZM12.01 11H12V13H12.01V11ZM8.01 11H8V13H8.01V11Z" fill="black"/>
</g>
</svg>
