<svg width="24" height="24" viewBox="0 0 24 24" fill="none" xmlns="http://www.w3.org/2000/svg">
<g id="minimize-02">
<path id="icon" d="M21.7071 3.70711C22.0976 3.31658 22.0976 2.68342 21.7071 2.29289C21.3166 1.90237 20.6834 1.90237 20.2929 2.29289L21.7071 3.70711ZM15 9H14C14 9.55228 14.4477 10 15 10V9ZM21 10C21.5523 10 22 9.55228 22 9C22 8.44772 21.5523 8 21 8V10ZM16 3C16 2.44772 15.5523 2 15 2C14.4477 2 14 2.44772 14 3H16ZM2.29289 20.2929C1.90237 20.6834 1.90237 21.3166 2.29289 21.7071C2.68342 22.0976 3.31658 22.0976 3.70711 21.7071L2.29289 20.2929ZM9 15H10C10 14.4477 9.55228 14 9 14V15ZM3 14C2.44772 14 2 14.4477 2 15C2 15.5523 2.44772 16 3 16V14ZM8 21C8 21.5523 8.44772 22 9 22C9.55228 22 10 21.5523 10 21H8ZM20.2929 2.29289L14.2929 8.29289L15.7071 9.70711L21.7071 3.70711L20.2929 2.29289ZM21 8H15V10H21V8ZM16 9V3H14V9H16ZM3.70711 21.7071L9.70711 15.7071L8.29289 14.2929L2.29289 20.2929L3.70711 21.7071ZM3 16H9V14H3V16ZM8 15V21H10V15H8Z" fill="black"/>
</g>
</svg>
