<svg width="24" height="24" viewBox="0 0 24 24" fill="none" xmlns="http://www.w3.org/2000/svg">
<g id="mobile">
<path id="icon" d="M10 17C9.44772 17 9 17.4477 9 18C9 18.5523 9.44772 19 10 19V17ZM14 19C14.5523 19 15 18.5523 15 18C15 17.4477 14.5523 17 14 17V19ZM12.01 7C12.5623 7 13.01 6.55228 13.01 6C13.01 5.44772 12.5623 5 12.01 5V7ZM12 5C11.4477 5 11 5.44772 11 6C11 6.55228 11.4477 7 12 7V5ZM7 3H17V1H7V3ZM18 4V20H20V4H18ZM17 21H7V23H17V21ZM6 20V4H4V20H6ZM7 21C6.44772 21 6 20.5523 6 20H4C4 21.6569 5.34315 23 7 23V21ZM18 20C18 20.5523 17.5523 21 17 21V23C18.6569 23 20 21.6569 20 20H18ZM17 3C17.5523 3 18 3.44772 18 4H20C20 2.34315 18.6569 1 17 1V3ZM7 1C5.34315 1 4 2.34315 4 4H6C6 3.44772 6.44772 3 7 3V1ZM10 19H14V17H10V19ZM12.01 5H12V7H12.01V5Z" fill="black"/>
</g>
</svg>
