<svg width="24" height="24" viewBox="0 0 24 24" fill="none" xmlns="http://www.w3.org/2000/svg">
<g id="monitor">
<path id="icon" d="M22 15H21H22ZM20 17V16V17ZM22 5H23H22ZM2 5H1H2ZM4 17V18V17ZM9 20C8.44772 20 8 20.4477 8 21C8 21.5523 8.44772 22 9 22L9 20ZM15 22C15.5523 22 16 21.5523 16 21C16 20.4477 15.5523 20 15 20V22ZM11 21C11 21.5523 11.4477 22 12 22C12.5523 22 13 21.5523 13 21H11ZM13 17C13 16.4477 12.5523 16 12 16C11.4477 16 11 16.4477 11 17H13ZM3 15L3 5H1L1 15H3ZM4 4L20 4V2L4 2V4ZM21 5V15H23V5H21ZM20 16L4 16V18L20 18V16ZM21 15C21 15.5523 20.5523 16 20 16V18C21.6569 18 23 16.6569 23 15H21ZM20 4C20.5523 4 21 4.44772 21 5H23C23 3.34315 21.6569 2 20 2V4ZM3 5C3 4.44772 3.44772 4 4 4V2C2.34315 2 1 3.34315 1 5H3ZM1 15C1 16.6569 2.34315 18 4 18V16C3.44772 16 3 15.5523 3 15H1ZM9 22L15 22V20L9 20L9 22ZM13 21V17H11V21H13Z" fill="black"/>
</g>
</svg>
