<svg width="24" height="24" viewBox="0 0 24 24" fill="none" xmlns="http://www.w3.org/2000/svg">
<g id="notification-off">
<path id="icon" d="M14.0003 22C14.5526 22 15.0003 21.5523 15.0003 21C15.0003 20.4477 14.5526 20 14.0003 20V22ZM10.0003 20C9.44801 20 9.0003 20.4477 9.0003 21C9.0003 21.5523 9.44801 22 10.0003 22V20ZM17 18C17.5523 18 18 17.5523 18 17C18 16.4477 17.5523 16 17 16V18ZM17.0516 11.3161C17.2261 11.84 17.7924 12.1233 18.3164 11.9487C18.8403 11.7742 19.1236 11.2079 18.949 10.6839L17.0516 11.3161ZM6.14517 6.69314C5.9757 7.21878 6.26443 7.78228 6.79007 7.95176C7.31571 8.12123 7.87921 7.8325 8.04868 7.30686L6.14517 6.69314ZM4.76309 13.4995C5.15708 13.1125 5.16273 12.4794 4.77571 12.0854C4.38869 11.6914 3.75555 11.6857 3.36155 12.0727L4.76309 13.4995ZM3.70711 2.2929C3.31658 1.90238 2.68342 1.90238 2.29289 2.2929C1.90237 2.68342 1.90237 3.31659 2.29289 3.70711L3.70711 2.2929ZM20.2929 21.7071C20.6834 22.0976 21.3166 22.0976 21.7071 21.7071C22.0976 21.3166 22.0976 20.6834 21.7071 20.2929L20.2929 21.7071ZM12.5 3C13.0523 3 13.5 2.55228 13.5 2C13.5 1.44772 13.0523 1 12.5 1V3ZM11.5813 1C11.029 1 10.5813 1.44772 10.5813 2C10.5813 2.55228 11.029 3 11.5813 3V1ZM14.0003 20H10.0003V22H14.0003V20ZM5 18H17V16H5V18ZM5 16C4.4877 16 4.14602 15.9996 3.89922 15.9859C3.77884 15.9792 3.7067 15.9705 3.66543 15.9631C3.62223 15.9553 3.64481 15.9544 3.69721 15.9806C3.76113 16.0125 3.84631 16.0734 3.917 16.1716C3.98284 16.263 4.00298 16.3411 4.00744 16.3612C4.01063 16.3756 4.00602 16.3615 4.00307 16.2893C4.00017 16.2182 4 16.1311 4 16H2C2 16.2024 1.99428 16.5215 2.05506 16.7951C2.09077 16.9557 2.15779 17.1511 2.29393 17.3402C2.43494 17.536 2.61387 17.675 2.80279 17.7694C3.12949 17.9328 3.50316 17.967 3.78828 17.9828C4.10398 18.0004 4.5123 18 5 18V16ZM18.949 10.6839C18.6895 9.90498 18.4985 9.05602 18.2569 8.11191C18.0237 7.20061 17.7478 6.22373 17.3285 5.3369C16.9053 4.44177 16.3138 3.58928 15.4208 2.96642C14.5191 2.33753 13.3923 2 12.0003 2V4C13.0561 4 13.7659 4.25058 14.2767 4.60683C14.7961 4.9691 15.1928 5.49877 15.5204 6.19175C15.852 6.89302 16.0896 7.7102 16.3194 8.60782C16.5407 9.47262 16.7622 10.4475 17.0516 11.3161L18.949 10.6839ZM12.0003 2C10.2533 2 8.94234 2.53279 7.97423 3.46423C7.03973 4.36334 6.51344 5.55091 6.14517 6.69314L8.04868 7.30686C8.38126 6.27535 8.78151 5.46291 9.36089 4.90547C9.90669 4.38034 10.697 4 12.0003 4V2ZM3.36155 12.0727C2.55141 12.8685 2 14.0346 2 16H4C4 14.4581 4.40958 13.8468 4.76309 13.4995L3.36155 12.0727ZM2.29289 3.70711L20.2929 21.7071L21.7071 20.2929L3.70711 2.2929L2.29289 3.70711ZM12.5 1H11.5813V3H12.5V1Z" fill="black"/>
</g>
</svg>
