<svg width="24" height="24" viewBox="0 0 24 24" fill="none" xmlns="http://www.w3.org/2000/svg">
<g id="phone">
<path id="icon" d="M7.66 16.6264C9.89067 18.7965 12.6008 20.2098 15.4902 20.8762C16.8937 21.1999 18.0792 20.8961 19.0978 19.879L20.4615 18.5173C21.2147 17.7652 21.1434 16.4746 20.4615 15.7937L19.7797 15.1128C18.4159 13.751 17.734 14.4319 16.3703 15.7937C14.3247 17.8364 6.14219 9.66569 8.18781 7.62303C9.55155 6.26125 10.2334 5.58036 8.86969 4.21859L8.18781 3.5377C7.50593 2.85681 6.2135 2.78561 5.46032 3.5377L4.09657 4.89948C3.05418 5.94036 2.79389 7.12434 3.1514 8.55244C3.89256 11.5131 5.39409 14.3064 7.66 16.6264Z" stroke="black" stroke-width="2"/>
</g>
</svg>
