<svg width="24" height="24" viewBox="0 0 24 24" fill="none" xmlns="http://www.w3.org/2000/svg">
<g id="refresh">
<path id="icon" d="M5.07313 7.66023L4.20711 7.16023H4.20711L5.07313 7.66023ZM15.5013 5.59805C15.9796 5.87419 16.5912 5.71032 16.8674 5.23202C17.1435 4.75373 16.9796 4.14214 16.5013 3.866L15.5013 5.59805ZM17.9673 2.74118C17.8243 2.20771 17.276 1.89113 16.7425 2.03407C16.2091 2.17702 15.8925 2.72535 16.0354 3.25882L17.9673 2.74118ZM17.7334 5.73205L17.9922 6.69798C18.2484 6.62933 18.4668 6.46174 18.5994 6.23205C18.732 6.00237 18.768 5.72941 18.6993 5.47323L17.7334 5.73205ZM14.7425 5.49818C14.2091 5.64112 13.8925 6.18945 14.0354 6.72292C14.1784 7.25639 14.7267 7.57297 15.2602 7.43003L14.7425 5.49818ZM18.6603 16.3398L19.5263 16.8398L18.6603 16.3398ZM8.23206 18.4019C7.75377 18.1258 7.14218 18.2897 6.86604 18.768C6.58989 19.2463 6.75377 19.8579 7.23206 20.134L8.23206 18.4019ZM5.76613 21.2588C5.90907 21.7923 6.45741 22.1089 6.99087 21.9659C7.52434 21.823 7.84092 21.2746 7.69798 20.7412L5.76613 21.2588ZM6.00001 18.2679L5.74119 17.302C5.48501 17.3707 5.26659 17.5383 5.13398 17.7679C5.00137 17.9976 4.96544 18.2706 5.03408 18.5268L6.00001 18.2679ZM8.99088 18.5018C9.52434 18.3589 9.84092 17.8105 9.69798 17.2771C9.55504 16.7436 9.0067 16.427 8.47324 16.57L8.99088 18.5018ZM20.3386 9.70774C20.1772 9.17957 19.6182 8.88225 19.09 9.04366C18.5619 9.20507 18.2645 9.76409 18.426 10.2923L20.3386 9.70774ZM3.39477 14.2923C3.55618 14.8204 4.1152 15.1178 4.64337 14.9563C5.17154 14.7949 5.46886 14.2359 5.30745 13.7077L3.39477 14.2923ZM5.93916 8.16023C7.87215 4.81218 12.1533 3.66505 15.5013 5.59805L16.5013 3.866C12.1967 1.38072 6.69239 2.85559 4.20711 7.16023L5.93916 8.16023ZM16.0354 3.25882L16.7675 5.99087L18.6993 5.47323L17.9673 2.74118L16.0354 3.25882ZM17.4746 4.76613L14.7425 5.49818L15.2602 7.43003L17.9922 6.69798L17.4746 4.76613ZM17.7942 15.8398C15.8612 19.1878 11.5801 20.3349 8.23206 18.4019L7.23206 20.134C11.5367 22.6193 17.041 21.1444 19.5263 16.8398L17.7942 15.8398ZM7.69798 20.7412L6.96593 18.0091L5.03408 18.5268L5.76613 21.2588L7.69798 20.7412ZM6.25882 19.2339L8.99088 18.5018L8.47324 16.57L5.74119 17.302L6.25882 19.2339ZM18.426 10.2923C18.974 12.0857 18.8048 14.0894 17.7942 15.8398L19.5263 16.8398C20.8256 14.5894 21.042 12.0093 20.3386 9.70774L18.426 10.2923ZM5.30745 13.7077C4.75937 11.9143 4.92857 9.91062 5.93916 8.16023L4.20711 7.16023C2.90783 9.41065 2.69139 11.9907 3.39477 14.2923L5.30745 13.7077Z" fill="black"/>
</g>
</svg>
