<svg width="24" height="24" viewBox="0 0 24 24" fill="none" xmlns="http://www.w3.org/2000/svg">
<g id="save">
<path id="icon" d="M20.1345 7.42363L20.8459 6.72093V6.72093L20.1345 7.42363ZM15.6587 2.8919L14.9472 3.5946L15.6587 2.8919ZM7 6C6.44772 6 6 6.44772 6 7C6 7.55228 6.44772 8 7 8V6ZM11 8C11.5523 8 12 7.55228 12 7C12 6.44772 11.5523 6 11 6V8ZM7 19.2H8H7ZM7 16.8H6H7ZM17 16.8H18H17ZM17 19.2H16H17ZM15.3333 15V14V15ZM8.66667 15V16V15ZM8.66667 21V20V21ZM15.3333 21V22V21ZM14.7778 20C14.2255 20 13.7778 20.4477 13.7778 21C13.7778 21.5523 14.2255 22 14.7778 22V20ZM9.22222 22C9.77451 22 10.2222 21.5523 10.2222 21C10.2222 20.4477 9.77451 20 9.22222 20V22ZM17.4444 20H6.55556V22H17.4444V20ZM4 17.4V5.6H2V17.4H4ZM6.55556 20C5.15584 20 4 18.8477 4 17.4H2C2 19.9288 4.02792 22 6.55556 22V20ZM20 17.4C20 18.8477 18.8442 20 17.4444 20V22C19.9721 22 22 19.9288 22 17.4H20ZM6.55556 1C4.02792 1 2 3.07124 2 5.6H4C4 4.15231 5.15584 3 6.55556 3V1ZM6.55556 3H13.5242V1H6.55556V3ZM20 9.53174V17.4H22V9.53174H20ZM14.9472 3.5946L19.423 8.12634L20.8459 6.72093L16.3701 2.18919L14.9472 3.5946ZM22 9.53174C22 8.47948 21.5854 7.4696 20.8459 6.72093L19.423 8.12634C19.7927 8.50067 20 9.00561 20 9.53174H22ZM13.5242 3C14.0589 3 14.5714 3.21414 14.9472 3.5946L16.3701 2.18919C15.6186 1.42828 14.5937 1 13.5242 1V3ZM7 8H11V6H7V8ZM8 19.2L8 16.8H6L6 19.2H8ZM16 16.8V19.2H18V16.8H16ZM15.3333 16C15.6304 16 16 16.2843 16 16.8H18C18 15.3275 16.8772 14 15.3333 14V16ZM8 16.8C8 16.2843 8.36955 16 8.66667 16V14C7.12283 14 6 15.3275 6 16.8H8ZM8.66667 20C8.36955 20 8 19.7157 8 19.2H6C6 20.6725 7.12283 22 8.66667 22V20ZM15.3333 22C16.8772 22 18 20.6725 18 19.2H16C16 19.7157 15.6304 20 15.3333 20V22ZM15.3333 20H14.7778V22H15.3333V20ZM9.22222 20H8.66667V22H9.22222V20ZM15.3333 14L8.66667 14V16L15.3333 16V14Z" fill="black"/>
</g>
</svg>
