<svg width="24" height="24" viewBox="0 0 24 24" fill="none" xmlns="http://www.w3.org/2000/svg">
<g id="search-xl">
<path id="icon" d="M20.294 21.7082C20.6852 22.0981 21.3183 22.0971 21.7082 21.706C22.0981 21.3148 22.0971 20.6817 21.706 20.2918L20.294 21.7082ZM17.3628 15.9624C16.9717 15.5725 16.3385 15.5735 15.9486 15.9646C15.5587 16.3557 15.5597 16.9889 15.9509 17.3788L17.3628 15.9624ZM18 11C18 14.866 14.866 18 11 18V20C15.9706 20 20 15.9706 20 11H18ZM11 18C7.13401 18 4 14.866 4 11H2C2 15.9706 6.02944 20 11 20V18ZM4 11C4 7.13401 7.13401 4 11 4V2C6.02944 2 2 6.02944 2 11H4ZM11 4C14.866 4 18 7.13401 18 11H20C20 6.02944 15.9706 2 11 2V4ZM21.706 20.2918L17.3628 15.9624L15.9509 17.3788L20.294 21.7082L21.706 20.2918Z" fill="black"/>
</g>
</svg>
