<svg width="24" height="24" viewBox="0 0 24 24" fill="none" xmlns="http://www.w3.org/2000/svg">
<g id="settings-01">
<path id="icon" d="M4.4 10.9756L3.54002 11.4859L3.55633 11.5134L3.57436 11.5398L4.4 10.9756ZM3.3 9.12195L2.4371 9.62736L2.44002 9.63228L3.3 9.12195ZM3.3 7.07317L4.12564 7.63736L4.14529 7.60862L4.16288 7.57857L3.3 7.07317ZM9.1 4.92683L8.24002 4.4165L8.20894 4.46888L8.18444 4.52464L9.1 4.92683ZM10.2 3.07317L11.06 3.58351L11.0629 3.57857L10.2 3.07317ZM13.8 3.07317L12.8844 3.47536L12.9089 3.53112L12.94 3.5835L13.8 3.07317ZM14.9 4.92683L15.7629 4.42142L15.76 4.4165L14.9 4.92683ZM20.7 7.07317L19.7844 7.47536L19.8078 7.5285L19.8371 7.57857L20.7 7.07317ZM20.7 9.12195L19.8744 8.55776L19.8563 8.58414L19.84 8.61162L20.7 9.12195ZM19.6 10.9756L18.74 10.4653L18.7371 10.4702L19.6 10.9756ZM19.6 13.0244L20.46 12.5141L20.4437 12.4866L20.4256 12.4602L19.6 13.0244ZM20.7 14.878L21.5629 14.3726L21.56 14.3677L20.7 14.878ZM20.7 16.9268L19.8744 16.3626L19.8547 16.3914L19.8371 16.4214L20.7 16.9268ZM14.9 19.0732L15.76 19.5835L15.7911 19.5311L15.8156 19.4754L14.9 19.0732ZM13.8 20.9268L12.94 20.4165L12.9371 20.4214L13.8 20.9268ZM10.2 20.9268L11.1156 20.5246L11.0911 20.4689L11.06 20.4165L10.2 20.9268ZM9.1 19.0732L8.2371 19.5786L8.24002 19.5835L9.1 19.0732ZM3.3 16.9268L4.21556 16.5246L4.19221 16.4715L4.16288 16.4214L3.3 16.9268ZM3.3 14.878L4.12564 15.4422L4.14367 15.4159L4.15998 15.3884L3.3 14.878ZM4.4 13.0244L5.25999 13.5347L5.26288 13.5298L4.4 13.0244ZM14 12C14 13.1046 13.1046 14 12 14V16C14.2091 16 16 14.2091 16 12H14ZM12 14C10.8954 14 10 13.1046 10 12H8C8 14.2091 9.79086 16 12 16V14ZM10 12C10 10.8954 10.8954 10 12 10V8C9.79086 8 8 9.79086 8 12H10ZM12 10C13.1046 10 14 10.8954 14 12H16C16 9.79086 14.2091 8 12 8V10ZM5.25998 10.4653L4.15998 8.61162L2.44002 9.63228L3.54002 11.4859L5.25998 10.4653ZM4.16288 8.61655C3.92984 8.21867 3.97399 7.8593 4.12564 7.63736L2.47436 6.50898C1.82601 7.45777 1.87016 8.65938 2.43712 9.62735L4.16288 8.61655ZM4.16288 7.57857C4.39059 7.18981 4.76893 7 5.1 7V5C4.03107 5 3.00941 5.59067 2.43712 6.56777L4.16288 7.57857ZM5.1 7H7.3V5H5.1V7ZM7.3 7C8.41608 7 9.52588 6.44373 10.0156 5.32902L8.18444 4.52464C8.07412 4.77578 7.78392 5 7.3 5V7ZM9.95998 5.43716L11.06 3.5835L9.34002 2.56284L8.24002 4.4165L9.95998 5.43716ZM11.0629 3.57857C11.2906 3.18981 11.6689 3 12 3V1C10.9311 1 9.90942 1.59067 9.33712 2.56777L11.0629 3.57857ZM12 3C12.4839 3 12.7741 3.22422 12.8844 3.47536L14.7156 2.67098C14.2259 1.55627 13.1161 1 12 1V3ZM12.94 3.5835L14.04 5.43716L15.76 4.4165L14.66 2.56284L12.94 3.5835ZM14.0371 5.43223C14.6094 6.40933 15.6311 7 16.7 7V5C16.3689 5 15.9906 4.81019 15.7629 4.42143L14.0371 5.43223ZM16.7 7H18.9V5H16.7V7ZM18.9 7C19.3839 7 19.6741 7.22422 19.7844 7.47536L21.6156 6.67098C21.1259 5.55627 20.0161 5 18.9 5V7ZM19.8371 7.57857C20.0702 7.97646 20.026 8.33582 19.8744 8.55776L21.5256 9.68614C22.174 8.73735 22.1298 7.53574 21.5629 6.56777L19.8371 7.57857ZM19.84 8.61162L18.74 10.4653L20.46 11.4859L21.56 9.63228L19.84 8.61162ZM18.7371 10.4702C18.1702 11.4382 18.126 12.6398 18.7744 13.5886L20.4256 12.4602C20.274 12.2383 20.2298 11.8789 20.4629 11.481L18.7371 10.4702ZM18.74 13.5347L19.84 15.3884L21.56 14.3677L20.46 12.5141L18.74 13.5347ZM19.8371 15.3835C20.0702 15.7813 20.026 16.1407 19.8744 16.3626L21.5256 17.491C22.174 16.5422 22.1298 15.3406 21.5629 14.3726L19.8371 15.3835ZM19.8371 16.4214C19.6094 16.8102 19.2311 17 18.9 17V19C19.9689 19 20.9906 18.4093 21.5629 17.4322L19.8371 16.4214ZM18.9 17H16.7V19H18.9V17ZM16.7 17C15.5839 17 14.4741 17.5563 13.9844 18.671L15.8156 19.4754C15.9259 19.2242 16.2161 19 16.7 19V17ZM14.04 18.5628L12.94 20.4165L14.66 21.4372L15.76 19.5835L14.04 18.5628ZM12.9371 20.4214C12.7094 20.8102 12.3311 21 12 21V23C13.0689 23 14.0906 22.4093 14.6629 21.4322L12.9371 20.4214ZM12 21C11.5161 21 11.2259 20.7758 11.1156 20.5246L9.28444 21.329C9.77412 22.4437 10.8839 23 12 23V21ZM11.06 20.4165L9.95998 18.5628L8.24002 19.5835L9.34002 21.4372L11.06 20.4165ZM9.96288 18.5678C9.39058 17.5907 8.36893 17 7.3 17V19C7.63107 19 8.00941 19.1898 8.23712 19.5786L9.96288 18.5678ZM7.3 17H5.1V19H7.3V17ZM5.1 17C4.61608 17 4.32588 16.7758 4.21556 16.5246L2.38444 17.329C2.87412 18.4437 3.98392 19 5.1 19V17ZM4.16288 16.4214C3.92984 16.0235 3.97399 15.6642 4.12564 15.4422L2.47436 14.3139C1.82601 15.2627 1.87016 16.4643 2.43712 17.4322L4.16288 16.4214ZM4.15998 15.3884L5.25998 13.5347L3.54002 12.5141L2.44002 14.3677L4.15998 15.3884ZM5.26288 13.5298C5.82984 12.5618 5.87399 11.3602 5.22564 10.4114L3.57436 11.5398C3.72601 11.7617 3.77016 12.1211 3.53712 12.519L5.26288 13.5298Z" fill="black"/>
</g>
</svg>
