<svg width="24" height="24" viewBox="0 0 24 24" fill="none" xmlns="http://www.w3.org/2000/svg">
<g id="settings-03">
<path id="icon" d="M3 4C2.44772 4 2 4.44772 2 5C2 5.55228 2.44772 6 3 6V4ZM21 13C21.5523 13 22 12.5523 22 12C22 11.4477 21.5523 11 21 11V13ZM3 18C2.44772 18 2 18.4477 2 19C2 19.5523 2.44772 20 3 20V18ZM3 6H15V4H3V6ZM9 13L21 13V11L9 11V13ZM3 20H15V18H3V20ZM17 4H19V2H17V4ZM19 6H17V8H19V6ZM17 6C16.4477 6 16 5.55228 16 5H14C14 6.65685 15.3431 8 17 8V6ZM20 5C20 5.55228 19.5523 6 19 6V8C20.6569 8 22 6.65685 22 5H20ZM19 4C19.5523 4 20 4.44772 20 5H22C22 3.34315 20.6569 2 19 2V4ZM17 2C15.3431 2 14 3.34315 14 5H16C16 4.44772 16.4477 4 17 4V2ZM5 11H7V9H5V11ZM7 13H5V15H7V13ZM5 13C4.44772 13 4 12.5523 4 12H2C2 13.6569 3.34315 15 5 15V13ZM8 12C8 12.5523 7.55228 13 7 13V15C8.65685 15 10 13.6569 10 12H8ZM7 11C7.55228 11 8 11.4477 8 12H10C10 10.3431 8.65685 9 7 9V11ZM5 9C3.34315 9 2 10.3431 2 12H4C4 11.4477 4.44772 11 5 11V9ZM17 18H19V16H17V18ZM19 20H17V22H19V20ZM17 20C16.4477 20 16 19.5523 16 19H14C14 20.6569 15.3431 22 17 22V20ZM20 19C20 19.5523 19.5523 20 19 20V22C20.6569 22 22 20.6569 22 19H20ZM19 18C19.5523 18 20 18.4477 20 19H22C22 17.3431 20.6569 16 19 16V18ZM17 16C15.3431 16 14 17.3431 14 19H16C16 18.4477 16.4477 18 17 18V16Z" fill="black"/>
</g>
</svg>
