<svg width="24" height="24" viewBox="0 0 24 24" fill="none" xmlns="http://www.w3.org/2000/svg">
<g id="settings-02">
<path id="icon" d="M4 6C3.44772 6 3 6.44772 3 7C3 7.55228 3.44772 8 4 8L4 6ZM13 8C13.5523 8 14 7.55229 14 7C14 6.44772 13.5523 6 13 6V8ZM20 18C20.5523 18 21 17.5523 21 17C21 16.4477 20.5523 16 20 16V18ZM10 16C9.44772 16 9 16.4477 9 17C9 17.5523 9.44772 18 10 18V16ZM8 14V13V14ZM10 16H11H10ZM6 14V15V14ZM6 20L6 21H6V20ZM8 20V19V20ZM10 18H9H10ZM4 8L13 8V6L4 6L4 8ZM20 16H10V18H20V16ZM16 5H18V3H16V5ZM19 6V8H21V6H19ZM18 9H16V11H18V9ZM15 8V6H13V8H15ZM16 9C15.4477 9 15 8.55228 15 8H13C13 9.65685 14.3431 11 16 11V9ZM19 8C19 8.55228 18.5523 9 18 9V11C19.6569 11 21 9.65685 21 8H19ZM18 5C18.5523 5 19 5.44772 19 6H21C21 4.34315 19.6569 3 18 3V5ZM16 3C14.3431 3 13 4.34315 13 6H15C15 5.44772 15.4477 5 16 5V3ZM8 19H6V21H8V19ZM5 18L5 16H3L3 18H5ZM6 15H8V13H6V15ZM9 16L9 18H11L11 16H9ZM8 15C8.55229 15 9 15.4477 9 16H11C11 14.3431 9.65685 13 8 13V15ZM5 16C5 15.4477 5.44772 15 6 15V13C4.34315 13 3 14.3431 3 16H5ZM6 19C5.44772 19 5 18.5523 5 18H3C3 19.6569 4.34315 21 6 21L6 19ZM8 21C9.65685 21 11 19.6569 11 18H9C9 18.5523 8.55228 19 8 19V21Z" fill="black"/>
</g>
</svg>
