<svg width="24" height="24" viewBox="0 0 24 24" fill="none" xmlns="http://www.w3.org/2000/svg">
<g id="share-02" clip-path="url(#clip0_1628_4415)">
<path id="icon" d="M7 12C7.55228 12 8 11.5522 8 11C8 10.4477 7.55228 9.99996 7 9.99996V12ZM17 9.99996C16.4477 9.99996 16 10.4477 16 11C16 11.5522 16.4477 12 17 12V9.99996ZM11 13C11 13.5522 11.4477 14 12 14C12.5523 14 13 13.5522 13 13H11ZM12 3L12.7071 2.29289C12.3166 1.90237 11.6834 1.90237 11.2929 2.29289L12 3ZM7.29289 6.29289C6.90237 6.68342 6.90237 7.31658 7.29289 7.70711C7.68342 8.09763 8.31658 8.09763 8.70711 7.70711L7.29289 6.29289ZM15.2929 7.70711C15.6834 8.09763 16.3166 8.09763 16.7071 7.70711C17.0976 7.31658 17.0976 6.68342 16.7071 6.29289L15.2929 7.70711ZM25 28C25.5523 28 26 27.5523 26 27C26 26.4477 25.5523 26 25 26V28ZM19 26C18.4477 26 18 26.4477 18 27C18 27.5523 18.4477 28 19 28V26ZM25 26C25.5523 26 26 25.5523 26 25C26 24.4477 25.5523 24 25 24V26ZM19 24C18.4477 24 18 24.4477 18 25C18 25.5523 18.4477 26 19 26V24ZM17 18C17.5523 18 18 17.5523 18 17C18 16.4477 17.5523 16 17 16V18ZM7 16C6.44772 16 6 16.4477 6 17C6 17.5523 6.44772 18 7 18V16ZM20 14V18H22V14H20ZM18 20H6V22H18V20ZM4 18V14H2V18H4ZM6 20C4.89543 20 4 19.1045 4 18H2C2 20.2091 3.79086 22 6 22V20ZM20 18C20 19.1045 19.1046 20 18 20V22C20.2091 22 22 20.2091 22 18H20ZM18 12C19.1046 12 20 12.8954 20 14H22C22 11.7908 20.2091 9.99996 18 9.99996V12ZM6 9.99996C3.79086 9.99996 2 11.7908 2 14H4C4 12.8954 4.89543 12 6 12V9.99996ZM6 12H7V9.99996H6V12ZM17 12H18V9.99996H17V12ZM13 13V3H11V13H13ZM8.70711 7.70711L12.7071 3.70711L11.2929 2.29289L7.29289 6.29289L8.70711 7.70711ZM11.2929 3.70711L15.2929 7.70711L16.7071 6.29289L12.7071 2.29289L11.2929 3.70711ZM25 26H19V28H25V26ZM25 24H19V26H25V24ZM17 16H7V18H17V16Z" fill="black"/>
</g>
<defs>
<clipPath id="clip0_1628_4415">
<rect width="24" height="24" fill="white"/>
</clipPath>
</defs>
</svg>
