<svg width="24" height="24" viewBox="0 0 24 24" fill="none" xmlns="http://www.w3.org/2000/svg">
<g id="share-01">
<path id="icon" d="M7 12C7.55228 12 8 11.5522 8 11C8 10.4477 7.55228 9.99996 7 9.99996V12ZM17 9.99996C16.4477 9.99996 16 10.4477 16 11C16 11.5522 16.4477 12 17 12V9.99996ZM11 15C11 15.5523 11.4477 16 12 16C12.5523 16 13 15.5523 13 15H11ZM12 3L12.7071 2.29289C12.3166 1.90237 11.6834 1.90237 11.2929 2.29289L12 3ZM7.29289 6.29289C6.90237 6.68342 6.90237 7.31658 7.29289 7.70711C7.68342 8.09763 8.31658 8.09763 8.70711 7.70711L7.29289 6.29289ZM15.2929 7.70711C15.6834 8.09763 16.3166 8.09763 16.7071 7.70711C17.0976 7.31658 17.0976 6.68342 16.7071 6.29289L15.2929 7.70711ZM20 14V18H22V14H20ZM18 20H6V22H18V20ZM4 18V14H2V18H4ZM6 20C4.89543 20 4 19.1045 4 18H2C2 20.2091 3.79086 22 6 22V20ZM20 18C20 19.1045 19.1046 20 18 20V22C20.2091 22 22 20.2091 22 18H20ZM18 12C19.1046 12 20 12.8954 20 14H22C22 11.7908 20.2091 9.99996 18 9.99996V12ZM6 9.99996C3.79086 9.99996 2 11.7908 2 14H4C4 12.8954 4.89543 12 6 12V9.99996ZM6 12H7V9.99996H6V12ZM17 12H18V9.99996H17V12ZM13 15V3H11V15H13ZM8.70711 7.70711L12.7071 3.70711L11.2929 2.29289L7.29289 6.29289L8.70711 7.70711ZM11.2929 3.70711L15.2929 7.70711L16.7071 6.29289L12.7071 2.29289L11.2929 3.70711Z" fill="black"/>
</g>
</svg>
