<svg width="24" height="24" viewBox="0 0 24 24" fill="none" xmlns="http://www.w3.org/2000/svg">
<g id="tag">
<path id="icon" d="M9.41223 19.2722L8.76233 20.0322H8.76233L9.41223 19.2722ZM5.03421 15.5284L5.68412 14.7684H5.68412L5.03421 15.5284ZM13.401 19.1007L12.6506 18.4397V18.4397L13.401 19.1007ZM4.64494 11.6132L3.89451 10.9522H3.89451L4.64494 11.6132ZM12.2297 4.00165L12.23 5.00165H12.2301L12.2297 4.00165ZM17.3481 4L17.3484 5L17.3481 4ZM19.2618 5.63649L18.272 5.77901V5.77901L19.2618 5.63649ZM19.9808 10.6298L20.9706 10.4873V10.4873L19.9808 10.6298ZM19.5271 12.1452L20.2775 12.8062L19.5271 12.1452ZM10.771 4.65768L11.5214 5.31862L11.5215 5.31862L10.771 4.65768ZM15.9835 8.96695C16.3485 8.55244 16.3083 7.92055 15.8938 7.55559C15.4793 7.19062 14.8474 7.23079 14.4825 7.6453L15.9835 8.96695ZM14.4761 7.65249C14.1112 8.067 14.1513 8.69889 14.5658 9.06385C14.9803 9.42882 15.6122 9.38865 15.9772 8.97414L14.4761 7.65249ZM10.0621 18.5122L5.68412 14.7684L4.38431 16.2885L8.76233 20.0322L10.0621 18.5122ZM12.6506 18.4397C12.0516 19.1198 10.8956 19.2249 10.0621 18.5122L8.76233 20.0322C10.3468 21.3872 12.7625 21.3386 14.1514 19.7616L12.6506 18.4397ZM3.89451 10.9522C2.49649 12.5395 2.79293 14.9276 4.38431 16.2885L5.68412 14.7684C4.85758 14.0616 4.80546 12.9439 5.39538 12.2741L3.89451 10.9522ZM12.2301 5.00165L17.3484 5L17.3478 3L12.2294 3.00165L12.2301 5.00165ZM18.272 5.77901L18.991 10.7724L20.9706 10.4873L20.2516 5.49397L18.272 5.77901ZM17.3484 5C17.8247 4.99985 18.2093 5.34317 18.272 5.77901L20.2516 5.49397C20.044 4.05176 18.7966 2.99953 17.3478 3L17.3484 5ZM20.2775 12.8062C20.8366 12.1713 21.0913 11.3253 20.9706 10.4873L18.991 10.7724C19.0276 11.0264 18.9512 11.286 18.7766 11.4843L20.2775 12.8062ZM11.5215 5.31862C11.6967 5.11963 11.9547 5.00174 12.23 5.00165L12.2294 3.00165C11.3853 3.00192 10.579 3.36267 10.0206 3.99673L11.5215 5.31862ZM14.4825 7.6453L14.4761 7.65249L15.9772 8.97414L15.9835 8.96695L14.4825 7.6453ZM5.39538 12.2741L11.5214 5.31862L10.0206 3.99673L3.89451 10.9522L5.39538 12.2741ZM18.7766 11.4843L12.6506 18.4397L14.1514 19.7616L20.2775 12.8062L18.7766 11.4843Z" fill="black"/>
</g>
</svg>
