<svg width="24" height="24" viewBox="0 0 24 24" fill="none" xmlns="http://www.w3.org/2000/svg">
<g id="thumbs-up">
<path id="icon" d="M6 10.6319C8.84286 9.528 10.3367 6.18699 11 4C11.455 2.5 12.5 2 13.4024 2C15.4024 2 16.2324 3.52837 16 4.46584C15 8.5 15.5 9 19.0769 9C20.8522 9.00001 21.8393 10.7043 21.9805 12.1464C21.9823 12.1642 21.9832 12.1732 21.9858 12.2835C21.9873 12.3425 21.9829 12.5186 21.9785 12.5774C21.9704 12.6874 21.9623 12.7418 21.9461 12.8506L20.9651 19.4562C20.74 20.9197 19.4807 22 18 22H7.5M6 10.6319C5.39591 10.8664 4.7309 11 4 11C2.89543 11 2 11.8954 2 13V20C2 21.1046 2.89543 22 4 22H7.5M6 10.6319L7.5 22" stroke="black" stroke-width="2" stroke-linecap="round" stroke-linejoin="round"/>
</g>
</svg>
