<svg width="24" height="24" viewBox="0 0 24 24" fill="none" xmlns="http://www.w3.org/2000/svg">
<g id="thumbs-down">
<path id="icon" d="M6 13.3681C8.84286 14.472 10.3367 17.813 11 20C11.455 21.5 12.5 22 13.4024 22C15.4024 22 16.2324 20.4716 16 19.5342C15 15.5 15.5 15 19.0769 15C20.8522 15 21.8393 13.2957 21.9805 11.8536C21.9823 11.8358 21.9832 11.8268 21.9858 11.7165C21.9873 11.6575 21.9829 11.4814 21.9785 11.4226C21.9704 11.3126 21.9623 11.2582 21.9461 11.1494L20.9651 4.54382C20.74 3.08033 19.4807 1.99999 18 1.99999H7.5M6 13.3681C5.39591 13.1336 4.7309 13 4 13C2.89543 13 2 12.1046 2 11V3.99999C2 2.89542 2.89543 1.99999 4 1.99999H7.5M6 13.3681L7.5 1.99999" stroke="black" stroke-width="2" stroke-linecap="round" stroke-linejoin="round"/>
</g>
</svg>
