<svg width="24" height="24" viewBox="0 0 24 24" fill="none" xmlns="http://www.w3.org/2000/svg">
<g id="user-id">
<path id="icon" d="M15 1C14.4477 1 14 1.44772 14 2C14 2.55228 14.4477 3 15 3V1ZM9 3C9.55228 3 10 2.55228 10 2C10 1.44772 9.55228 1 9 1V3ZM1 9C1 9.55228 1.44772 10 2 10C2.55228 10 3 9.55228 3 9H1ZM21 9C21 9.55228 21.4477 10 22 10C22.5523 10 23 9.55228 23 9H21ZM23 15C23 14.4477 22.5523 14 22 14C21.4477 14 21 14.4477 21 15H23ZM3 15C3 14.4477 2.55228 14 2 14C1.44772 14 1 14.4477 1 15H3ZM9 23C9.55228 23 10 22.5523 10 22C10 21.4477 9.55228 21 9 21V23ZM15 21C14.4477 21 14 21.4477 14 22C14 22.5523 14.4477 23 15 23V21ZM15.4623 18.1416C15.928 18.4386 16.5462 18.3018 16.8431 17.8362C17.1401 17.3705 17.0034 16.7523 16.5377 16.4553L15.4623 18.1416ZM7.4623 16.4553C6.99665 16.7523 6.8599 17.3705 7.15686 17.8362C7.45383 18.3018 8.07205 18.4386 8.5377 18.1416L7.4623 16.4553ZM15 3H18V1H15V3ZM6 3H9V1H6V3ZM3 9V6H1V9H3ZM21 6V9H23V6H21ZM21 15V18H23V15H21ZM3 18V15H1V18H3ZM9 21H6V23H9V21ZM18 21H15V23H18V21ZM1 18C1 20.7614 3.23858 23 6 23V21C4.34315 21 3 19.6569 3 18H1ZM21 18C21 19.6569 19.6569 21 18 21V23C20.7614 23 23 20.7614 23 18H21ZM18 3C19.6569 3 21 4.34315 21 6H23C23 3.23858 20.7614 1 18 1V3ZM6 1C3.23858 1 1 3.23858 1 6H3C3 4.34315 4.34315 3 6 3V1ZM14.1111 9.14924C14.1111 10.3477 13.1545 11.2985 12 11.2985V13.2985C14.282 13.2985 16.1111 11.4293 16.1111 9.14924H14.1111ZM12 11.2985C10.8455 11.2985 9.88889 10.3477 9.88889 9.14924H7.88889C7.88889 11.4293 9.71805 13.2985 12 13.2985V11.2985ZM9.88889 9.14924C9.88889 7.95073 10.8455 7 12 7V5C9.71805 5 7.88889 6.86921 7.88889 9.14924H9.88889ZM12 7C13.1545 7 14.1111 7.95073 14.1111 9.14924H16.1111C16.1111 6.8692 14.282 5 12 5V7ZM12 17.1164C13.2535 17.1164 14.4338 17.4857 15.4623 18.1416L16.5377 16.4553C15.2069 15.6066 13.6565 15.1164 12 15.1164V17.1164ZM8.5377 18.1416C9.56624 17.4857 10.7465 17.1164 12 17.1164V15.1164C10.3435 15.1164 8.7931 15.6066 7.4623 16.4553L8.5377 18.1416Z" fill="black"/>
</g>
</svg>
