<svg width="24" height="24" viewBox="0 0 24 24" fill="none" xmlns="http://www.w3.org/2000/svg">
<g id="user-check">
<path id="icon" d="M2.08097 20.6058C1.86327 21.1134 2.09825 21.7013 2.60581 21.919C3.11338 22.1367 3.70133 21.9018 3.91903 21.3942L2.08097 20.6058ZM12 16C12.5523 16 13 15.5523 13 15C13 14.4477 12.5523 14 12 14V16ZM21.8 17.6C22.1314 17.1582 22.0418 16.5314 21.6 16.2C21.1582 15.8686 20.5314 15.9582 20.2 16.4L21.8 17.6ZM18 21L17.2929 21.7071C17.4979 21.9121 17.7817 22.018 18.0709 21.9975C18.36 21.9769 18.6261 21.8319 18.8 21.6L18 21ZM16.7071 18.2929C16.3166 17.9024 15.6834 17.9024 15.2929 18.2929C14.9024 18.6834 14.9024 19.3166 15.2929 19.7071L16.7071 18.2929ZM15 7C15 8.65685 13.6569 10 12 10V12C14.7614 12 17 9.76142 17 7H15ZM12 10C10.3431 10 9 8.65685 9 7H7C7 9.76142 9.23858 12 12 12V10ZM9 7C9 5.34315 10.3431 4 12 4V2C9.23858 2 7 4.23858 7 7H9ZM12 4C13.6569 4 15 5.34315 15 7H17C17 4.23858 14.7614 2 12 2V4ZM3.91903 21.3942C5.28523 18.209 8.39671 16 12 16V14C7.55222 14 3.74447 16.7274 2.08097 20.6058L3.91903 21.3942ZM20.2 16.4L17.2 20.4L18.8 21.6L21.8 17.6L20.2 16.4ZM18.7071 20.2929L16.7071 18.2929L15.2929 19.7071L17.2929 21.7071L18.7071 20.2929Z" fill="black"/>
</g>
</svg>
