<svg width="24" height="24" viewBox="0 0 24 24" fill="none" xmlns="http://www.w3.org/2000/svg">
<g id="user-group">
<path id="icon" d="M15.4472 2.10557C14.9532 1.85858 14.3526 2.05881 14.1056 2.55279C13.8586 3.04676 14.0588 3.64744 14.5528 3.89443L15.4472 2.10557ZM16.5715 9.62861C16.3664 10.1414 16.6158 10.7234 17.1286 10.9285C17.6414 11.1336 18.2234 10.8842 18.4285 10.3714L16.5715 9.62861ZM2.07704 20.6151C1.86447 21.1248 2.10537 21.7104 2.61511 21.923C3.12484 22.1355 3.71039 21.8946 3.92296 21.3849L2.07704 20.6151ZM14.0807 21.3849C14.2933 21.8946 14.8788 22.1355 15.3886 21.923C15.8983 21.7104 16.1392 21.1248 15.9266 20.6151L14.0807 21.3849ZM16.4472 13.1056C15.9532 12.8586 15.3526 13.0588 15.1056 13.5528C14.8586 14.0468 15.0588 14.6474 15.5528 14.8944L16.4472 13.1056ZM20.0715 20.3714C20.2766 20.8842 20.8586 21.1336 21.3714 20.9285C21.8842 20.7234 22.1336 20.1414 21.9285 19.6286L20.0715 20.3714ZM12 9C12 10.6569 10.6569 12 9 12V14C11.7614 14 14 11.7614 14 9H12ZM9 12C7.34315 12 6 10.6569 6 9H4C4 11.7614 6.23858 14 9 14V12ZM6 9C6 7.34315 7.34315 6 9 6V4C6.23858 4 4 6.23858 4 9H6ZM9 6C10.6569 6 12 7.34315 12 9H14C14 6.23858 11.7614 4 9 4V6ZM14.5528 3.89443C15.8152 4.52563 16.4993 5.43597 16.7922 6.41235C17.0917 7.41093 17.0021 8.55209 16.5715 9.62861L18.4285 10.3714C18.9979 8.94791 19.1583 7.33907 18.7078 5.83765C18.2507 4.31403 17.1848 2.97437 15.4472 2.10557L14.5528 3.89443ZM3.92296 21.3849C4.75263 19.3954 6.71545 18 9.00184 18V16C5.88033 16 3.20649 17.9067 2.07704 20.6151L3.92296 21.3849ZM9.00184 18C11.2882 18 13.251 19.3954 14.0807 21.3849L15.9266 20.6151C14.7972 17.9067 12.1233 16 9.00184 16V18ZM15.5528 14.8944C16.9221 15.5791 17.7985 16.3563 18.45 17.225C19.1155 18.1123 19.5756 19.1315 20.0715 20.3714L21.9285 19.6286C21.4244 18.3685 20.8846 17.1377 20.05 16.025C19.2016 14.8937 18.0779 13.9209 16.4472 13.1056L15.5528 14.8944Z" fill="black"/>
</g>
</svg>
