<svg width="24" height="24" viewBox="0 0 24 24" fill="none" xmlns="http://www.w3.org/2000/svg">
<g id="user-add">
<path id="icon" d="M2.08097 20.6058C1.86327 21.1134 2.09825 21.7013 2.60581 21.919C3.11338 22.1367 3.70133 21.9018 3.91903 21.3942L2.08097 20.6058ZM12 16C12.5523 16 13 15.5523 13 15C13 14.4477 12.5523 14 12 14V16ZM15 17C14.4477 17 14 17.4477 14 18C14 18.5523 14.4477 19 15 19V17ZM21 19C21.5523 19 22 18.5523 22 18C22 17.4477 21.5523 17 21 17V19ZM17 21C17 21.5523 17.4477 22 18 22C18.5523 22 19 21.5523 19 21H17ZM19 15C19 14.4477 18.5523 14 18 14C17.4477 14 17 14.4477 17 15H19ZM15 7C15 8.65685 13.6569 10 12 10V12C14.7614 12 17 9.76142 17 7H15ZM12 10C10.3431 10 9 8.65685 9 7H7C7 9.76142 9.23858 12 12 12V10ZM9 7C9 5.34315 10.3431 4 12 4V2C9.23858 2 7 4.23858 7 7H9ZM12 4C13.6569 4 15 5.34315 15 7H17C17 4.23858 14.7614 2 12 2V4ZM3.91903 21.3942C5.28523 18.209 8.39671 16 12 16V14C7.55222 14 3.74447 16.7274 2.08097 20.6058L3.91903 21.3942ZM15 19H18V17H15V19ZM18 19H21V17H18V19ZM19 21V18H17V21H19ZM19 18V15H17V18H19Z" fill="black"/>
</g>
</svg>
