<svg width="24" height="24" viewBox="0 0 24 24" fill="none" xmlns="http://www.w3.org/2000/svg">
<g id="user-right">
<path id="icon" d="M2.08097 20.6058C1.86327 21.1134 2.09825 21.7013 2.60581 21.919C3.11338 22.1367 3.70133 21.9018 3.91903 21.3942L2.08097 20.6058ZM12 16C12.5523 16 13 15.5523 13 15C13 14.4477 12.5523 14 12 14V16ZM15 17C14.4477 17 14 17.4477 14 18C14 18.5523 14.4477 19 15 19V17ZM21 18L21.7071 18.7071C21.8946 18.5196 22 18.2652 22 18C22 17.7348 21.8946 17.4804 21.7071 17.2929L21 18ZM18.7071 14.2929C18.3166 13.9024 17.6834 13.9024 17.2929 14.2929C16.9024 14.6834 16.9024 15.3166 17.2929 15.7071L18.7071 14.2929ZM17.2929 20.2929C16.9024 20.6834 16.9024 21.3166 17.2929 21.7071C17.6834 22.0976 18.3166 22.0976 18.7071 21.7071L17.2929 20.2929ZM15 7C15 8.65685 13.6569 10 12 10V12C14.7614 12 17 9.76142 17 7H15ZM12 10C10.3431 10 9 8.65685 9 7H7C7 9.76142 9.23858 12 12 12V10ZM9 7C9 5.34315 10.3431 4 12 4V2C9.23858 2 7 4.23858 7 7H9ZM12 4C13.6569 4 15 5.34315 15 7H17C17 4.23858 14.7614 2 12 2V4ZM3.91903 21.3942C5.28523 18.209 8.39671 16 12 16V14C7.55222 14 3.74447 16.7274 2.08097 20.6058L3.91903 21.3942ZM15 19H21V17H15V19ZM17.2929 15.7071L20.2929 18.7071L21.7071 17.2929L18.7071 14.2929L17.2929 15.7071ZM20.2929 17.2929L17.2929 20.2929L18.7071 21.7071L21.7071 18.7071L20.2929 17.2929Z" fill="black"/>
</g>
</svg>
