<svg width="24" height="24" viewBox="0 0 24 24" fill="none" xmlns="http://www.w3.org/2000/svg">
<g id="wallet">
<path id="icon" d="M3.94 8.41252L4.47 9.26053L4.47305 9.25861L3.94 8.41252ZM12.0485 3.30397L11.5185 2.45596L11.5155 2.45788L12.0485 3.30397ZM16 14C15.4477 14 15 14.4477 15 15C15 15.5523 15.4477 16 16 16V14ZM17 16C17.5523 16 18 15.5523 18 15C18 14.4477 17.5523 14 17 14V16ZM5 9.99998H19V7.99998H5V9.99998ZM20 11V19H22V11H20ZM19 20H5V22H19V20ZM4 19V11H2V19H4ZM5 20C4.44772 20 4 19.5523 4 19H2C2 20.6568 3.34315 22 5 22V20ZM20 19C20 19.5523 19.5523 20 19 20V22C20.6569 22 22 20.6568 22 19H20ZM19 9.99998C19.5523 9.99998 20 10.4477 20 11H22C22 9.34312 20.6569 7.99998 19 7.99998V9.99998ZM5 7.99998C3.34315 7.99998 2 9.34312 2 11H4C4 10.4477 4.44772 9.99998 5 9.99998V7.99998ZM4.47305 9.25861L12.5816 4.15005L11.5155 2.45788L3.40695 7.56644L4.47305 9.25861ZM14.1085 4.99996V8.99996H16.1085V4.99996H14.1085ZM4 15V10.1085H2V15H4ZM12.5785 4.15196C13.2446 3.73568 14.1085 4.21453 14.1085 4.99996H16.1085C16.1085 2.64366 13.5167 1.20713 11.5185 2.45597L12.5785 4.15196ZM3.41 7.56452C2.53286 8.11274 2 9.07415 2 10.1085H4C4 9.76373 4.17762 9.44326 4.47 9.26052L3.41 7.56452ZM16 16H17V14H16V16Z" fill="black"/>
</g>
</svg>
