<?xml version="1.0" encoding="UTF-8" standalone="no"?>
<svg
   xmlns:dc="http://purl.org/dc/elements/1.1/"
   xmlns:cc="http://creativecommons.org/ns#"
   xmlns:rdf="http://www.w3.org/1999/02/22-rdf-syntax-ns#"
   xmlns:svg="http://www.w3.org/2000/svg"
   xmlns="http://www.w3.org/2000/svg"
   xmlns:xlink="http://www.w3.org/1999/xlink"
   xmlns:sodipodi="http://sodipodi.sourceforge.net/DTD/sodipodi-0.dtd"
   xmlns:inkscape="http://www.inkscape.org/namespaces/inkscape"
   width="900"
   height="450"
   version="1.1"
   id="svg31"
   sodipodi:docname="Flag of New Caledonia (WFB 2000).svg"
   inkscape:version="0.92.3 (2405546, 2018-03-11)">
  <metadata
     id="metadata37">
    <rdf:RDF>
      <cc:Work
         rdf:about="">
        <dc:format>image/svg+xml</dc:format>
        <dc:type
           rdf:resource="http://purl.org/dc/dcmitype/StillImage" />
      </cc:Work>
    </rdf:RDF>
  </metadata>
  <defs
     id="defs35" />
  <sodipodi:namedview
     pagecolor="#ffffff"
     bordercolor="#666666"
     borderopacity="1"
     objecttolerance="10"
     gridtolerance="10"
     guidetolerance="10"
     inkscape:pageopacity="0"
     inkscape:pageshadow="2"
     inkscape:window-width="1920"
     inkscape:window-height="1017"
     id="namedview33"
     showgrid="false"
     inkscape:zoom="0.89252589"
     inkscape:cx="450"
     inkscape:cy="225"
     inkscape:window-x="-8"
     inkscape:window-y="-8"
     inkscape:window-maximized="1"
     inkscape:current-layer="svg31" />
  <title
     id="title2">Flag of New Caledonia</title>
  <rect
     fill="#009543"
     width="900"
     height="450"
     id="rect4"
     style="fill:#5cc23b;fill-opacity:1" />
  <rect
     fill="#ed4135"
     width="900"
     height="300"
     id="rect6"
     style="fill:#ef2800;fill-opacity:1" />
  <rect
     fill="#0035ad"
     width="900"
     height="150"
     id="rect8"
     style="fill:#5751ab;fill-opacity:1" />
  <circle
     stroke="#000"
     stroke-width="5"
     fill="#fae600"
     cx="300"
     cy="225"
     r="147.48"
     id="circle10"
     style="fill:#ffff01;fill-opacity:1" />
  <path
     stroke="#000"
     stroke-width="6"
     d="M275,247h50 M275,210h50 M300,78V330"
     id="path12" />
  <path
     d="M240.62,360.419  C300.811,384.999,357.228,361.929,357.228,361.929  C357.228,361.929,335.931,338.881,325.014,329.882  C314.361,321.104,283.023,321.451,272.329,329.882  C263.405,336.92,237.809,362.852,240.62,360.419Z"
     id="path14" />
  <ellipse
     cx="300"
     cy="293"
     rx="16.5"
     ry="24"
     id="ellipse16" />
  <ellipse
     cx="300"
     cy="228.5"
     rx="20"
     ry="12.66"
     id="ellipse18" />
  <ellipse
     cx="300"
     cy="170"
     rx="20"
     ry="20"
     id="ellipse20" />
  <path
     d="M324,95.5  C323.994,95.4866,325.733,98.3708,322.087,104.936  C304.661,136.319,287.174,136.997,283.855,139.7  C280.197,142.678,278.653,142.474,278.653,142.474  C278.914,139.786,279.157,128.795,279.348,127.736  C281.993,113.073,304.144,113.275,321.48,98.2605  C324.188,95.915,323.994,95.4866,323.994,95.4866Z"
     id="path22" />
  <g
     id="leaf">
    <path
       d="m 265.5,163   c0,0 3.91436,11.22974 4.5,22.5   c0.93516,17.99657 18.18031,18.5 30,18.5   l0,-10   c-8.85851,0 -16.55267,-1.31658 -23,-14.5   c-3.18045,-6.50336 -11.5,-16.5 -11.5,-16.5z"
       id="path24" />
    <path
       d="m 265,308   c0,0 6.29638,-7.76543 13.6619,-25.97461   C282.5048,272.5249 291.6115,267 300,267   l0,-14   c-19.02757,0 -28.1503,7.0552 -29.11281,17.36332   C268.90975,291.54089 265,308 265,308z"
       id="path26" />
  </g>
  <use
     xlink:href="#leaf"
     transform="translate(600,0)scale(-1,1)"
     id="use29" />
</svg>
